<mxfile host="app.diagrams.net" modified="2024-01-03T20:23:13.202Z" agent="Mozilla/5.0 (X11; Linux x86_64) AppleWebKit/537.36 (KHTML, like Gecko) Chrome/120.0.0.0 Safari/537.36 Edg/120.0.0.0" etag="zvWyfxzHxBn-I-AlIa6F" version="22.1.16" type="device" pages="2">
  <diagram id="4ug6u-7A81J4rQKssBRe" name="Banco de Dados">
    <mxGraphModel dx="2426" dy="1520" grid="0" gridSize="20" guides="1" tooltips="1" connect="1" arrows="1" fold="1" page="0" pageScale="1" pageWidth="827" pageHeight="1169" background="none" math="0" shadow="0">
      <root>
        <mxCell id="0" />
        <mxCell id="1" parent="0" />
        <mxCell id="puWi77wORtsvDcIVcFdr-51" style="edgeStyle=orthogonalEdgeStyle;rounded=0;orthogonalLoop=1;jettySize=auto;html=1;entryX=1;entryY=0.5;entryDx=0;entryDy=0;fontFamily=Helvetica;fontSize=12;fontColor=default;startSize=30;" parent="1" source="puWi77wORtsvDcIVcFdr-1" target="puWi77wORtsvDcIVcFdr-50" edge="1">
          <mxGeometry relative="1" as="geometry" />
        </mxCell>
        <mxCell id="puWi77wORtsvDcIVcFdr-88" style="edgeStyle=orthogonalEdgeStyle;rounded=0;orthogonalLoop=1;jettySize=auto;html=1;entryX=0;entryY=0.5;entryDx=0;entryDy=0;fontFamily=Helvetica;fontSize=12;fontColor=default;startSize=30;" parent="1" source="puWi77wORtsvDcIVcFdr-1" target="puWi77wORtsvDcIVcFdr-66" edge="1">
          <mxGeometry relative="1" as="geometry">
            <Array as="points">
              <mxPoint x="291" y="172" />
              <mxPoint x="291" y="-10" />
            </Array>
          </mxGeometry>
        </mxCell>
        <mxCell id="puWi77wORtsvDcIVcFdr-1" value="cliente" style="shape=table;startSize=30;container=1;collapsible=1;childLayout=tableLayout;fixedRows=1;rowLines=0;fontStyle=1;align=center;resizeLast=1;absoluteArcSize=0;rounded=0;" parent="1" vertex="1">
          <mxGeometry x="-162.37" y="100" width="344.75" height="144" as="geometry" />
        </mxCell>
        <mxCell id="puWi77wORtsvDcIVcFdr-2" value="" style="shape=partialRectangle;collapsible=0;dropTarget=0;pointerEvents=0;fillColor=none;points=[[0,0.5],[1,0.5]];portConstraint=eastwest;top=0;left=0;right=0;bottom=1;rounded=0;" parent="puWi77wORtsvDcIVcFdr-1" vertex="1">
          <mxGeometry y="30" width="344.75" height="30" as="geometry" />
        </mxCell>
        <mxCell id="puWi77wORtsvDcIVcFdr-3" value="PK" style="shape=partialRectangle;overflow=hidden;connectable=0;fillColor=#dae8fc;top=0;left=0;bottom=0;right=0;fontStyle=1;labelBackgroundColor=none;labelBorderColor=none;strokeColor=#6c8ebf;rounded=0;" parent="puWi77wORtsvDcIVcFdr-2" vertex="1">
          <mxGeometry width="30" height="30" as="geometry">
            <mxRectangle width="30" height="30" as="alternateBounds" />
          </mxGeometry>
        </mxCell>
        <mxCell id="puWi77wORtsvDcIVcFdr-4" value="id_cliente [ int - NOT NULL ]" style="shape=partialRectangle;overflow=hidden;connectable=0;fillColor=#dae8fc;top=0;left=0;bottom=0;right=0;align=left;spacingLeft=6;fontStyle=1;labelBackgroundColor=none;labelBorderColor=none;strokeColor=#6c8ebf;rounded=0;" parent="puWi77wORtsvDcIVcFdr-2" vertex="1">
          <mxGeometry x="30" width="314.75" height="30" as="geometry">
            <mxRectangle width="314.75" height="30" as="alternateBounds" />
          </mxGeometry>
        </mxCell>
        <mxCell id="puWi77wORtsvDcIVcFdr-5" value="" style="shape=partialRectangle;collapsible=0;dropTarget=0;pointerEvents=0;fillColor=none;points=[[0,0.5],[1,0.5]];portConstraint=eastwest;top=0;left=0;right=0;bottom=0;rounded=0;" parent="puWi77wORtsvDcIVcFdr-1" vertex="1">
          <mxGeometry y="60" width="344.75" height="84" as="geometry" />
        </mxCell>
        <mxCell id="puWi77wORtsvDcIVcFdr-6" value="" style="shape=partialRectangle;overflow=hidden;connectable=0;fillColor=none;top=0;left=0;bottom=0;right=0;rounded=0;" parent="puWi77wORtsvDcIVcFdr-5" vertex="1">
          <mxGeometry width="30" height="84" as="geometry">
            <mxRectangle width="30" height="84" as="alternateBounds" />
          </mxGeometry>
        </mxCell>
        <mxCell id="puWi77wORtsvDcIVcFdr-7" value="tipo [ varchar(2) - NOT NULL ]&#xa;usuario [ varchar(50) - NOT NULL ]&#xa;senha [ varchar(50) - NOT NULL ]&#xa;e-mail [ varchar(50) - NOT NULL ]&#xa;saldo [ double precision - NOT NULL ]" style="shape=partialRectangle;overflow=hidden;connectable=0;fillColor=none;top=0;left=0;bottom=0;right=0;align=left;spacingLeft=6;rounded=0;" parent="puWi77wORtsvDcIVcFdr-5" vertex="1">
          <mxGeometry x="30" width="314.75" height="84" as="geometry">
            <mxRectangle width="314.75" height="84" as="alternateBounds" />
          </mxGeometry>
        </mxCell>
        <mxCell id="puWi77wORtsvDcIVcFdr-36" value="pessoafisica" style="shape=table;startSize=30;container=1;collapsible=1;childLayout=tableLayout;fixedRows=1;rowLines=0;fontStyle=1;align=center;resizeLast=1;absoluteArcSize=0;rounded=0;" parent="1" vertex="1">
          <mxGeometry x="-361" y="420" width="320" height="154" as="geometry" />
        </mxCell>
        <mxCell id="puWi77wORtsvDcIVcFdr-37" value="" style="shape=partialRectangle;collapsible=0;dropTarget=0;pointerEvents=0;fillColor=none;points=[[0,0.5],[1,0.5]];portConstraint=eastwest;top=0;left=0;right=0;bottom=1;rounded=0;" parent="puWi77wORtsvDcIVcFdr-36" vertex="1">
          <mxGeometry y="30" width="320" height="35" as="geometry" />
        </mxCell>
        <mxCell id="puWi77wORtsvDcIVcFdr-38" value="PK" style="shape=partialRectangle;overflow=hidden;connectable=0;fillColor=#dae8fc;top=0;left=0;bottom=0;right=0;fontStyle=1;labelBackgroundColor=none;labelBorderColor=none;strokeColor=#6c8ebf;rounded=0;" parent="puWi77wORtsvDcIVcFdr-37" vertex="1">
          <mxGeometry width="30" height="35" as="geometry">
            <mxRectangle width="30" height="35" as="alternateBounds" />
          </mxGeometry>
        </mxCell>
        <mxCell id="puWi77wORtsvDcIVcFdr-39" value="id_pessoafisica [ int - NOT NULL ]" style="shape=partialRectangle;overflow=hidden;connectable=0;fillColor=#dae8fc;top=0;left=0;bottom=0;right=0;align=left;spacingLeft=6;fontStyle=1;labelBackgroundColor=none;labelBorderColor=none;strokeColor=#6c8ebf;rounded=0;" parent="puWi77wORtsvDcIVcFdr-37" vertex="1">
          <mxGeometry x="30" width="290" height="35" as="geometry">
            <mxRectangle width="290" height="35" as="alternateBounds" />
          </mxGeometry>
        </mxCell>
        <mxCell id="puWi77wORtsvDcIVcFdr-56" value="" style="shape=partialRectangle;collapsible=0;dropTarget=0;pointerEvents=0;fillColor=none;points=[[0,0.5],[1,0.5]];portConstraint=eastwest;top=0;left=0;right=0;bottom=1;rounded=0;" parent="puWi77wORtsvDcIVcFdr-36" vertex="1">
          <mxGeometry y="65" width="320" height="30" as="geometry" />
        </mxCell>
        <mxCell id="puWi77wORtsvDcIVcFdr-57" value="FK" style="shape=partialRectangle;overflow=hidden;connectable=0;fillColor=#f8cecc;top=0;left=0;bottom=0;right=0;fontStyle=1;labelBackgroundColor=none;labelBorderColor=none;strokeColor=#b85450;rounded=0;" parent="puWi77wORtsvDcIVcFdr-56" vertex="1">
          <mxGeometry width="30" height="30" as="geometry">
            <mxRectangle width="30" height="30" as="alternateBounds" />
          </mxGeometry>
        </mxCell>
        <mxCell id="puWi77wORtsvDcIVcFdr-58" value="id_cliente" style="shape=partialRectangle;overflow=hidden;connectable=0;fillColor=#f8cecc;top=0;left=0;bottom=0;right=0;align=left;spacingLeft=6;fontStyle=1;labelBackgroundColor=none;labelBorderColor=none;strokeColor=#b85450;rounded=0;" parent="puWi77wORtsvDcIVcFdr-56" vertex="1">
          <mxGeometry x="30" width="290" height="30" as="geometry">
            <mxRectangle width="290" height="30" as="alternateBounds" />
          </mxGeometry>
        </mxCell>
        <mxCell id="puWi77wORtsvDcIVcFdr-40" value="" style="shape=partialRectangle;collapsible=0;dropTarget=0;pointerEvents=0;fillColor=none;points=[[0,0.5],[1,0.5]];portConstraint=eastwest;top=0;left=0;right=0;bottom=0;rounded=0;" parent="puWi77wORtsvDcIVcFdr-36" vertex="1">
          <mxGeometry y="95" width="320" height="59" as="geometry" />
        </mxCell>
        <mxCell id="puWi77wORtsvDcIVcFdr-41" value="" style="shape=partialRectangle;overflow=hidden;connectable=0;fillColor=none;top=0;left=0;bottom=0;right=0;rounded=0;" parent="puWi77wORtsvDcIVcFdr-40" vertex="1">
          <mxGeometry width="30" height="59" as="geometry">
            <mxRectangle width="30" height="59" as="alternateBounds" />
          </mxGeometry>
        </mxCell>
        <mxCell id="puWi77wORtsvDcIVcFdr-42" value="cpf [ varchar(11) - NOT NULL ]&#xa;nome [ varchar(150) - NOT NULL ]&#xa;nascimento [ data - NOT NULL ]" style="shape=partialRectangle;overflow=hidden;connectable=0;fillColor=none;top=0;left=0;bottom=0;right=0;align=left;spacingLeft=6;rounded=0;" parent="puWi77wORtsvDcIVcFdr-40" vertex="1">
          <mxGeometry x="30" width="290" height="59" as="geometry">
            <mxRectangle width="290" height="59" as="alternateBounds" />
          </mxGeometry>
        </mxCell>
        <mxCell id="puWi77wORtsvDcIVcFdr-43" value="pessoajuridica" style="shape=table;startSize=30;container=1;collapsible=1;childLayout=tableLayout;fixedRows=1;rowLines=0;fontStyle=1;align=center;resizeLast=1;absoluteArcSize=0;rounded=0;" parent="1" vertex="1">
          <mxGeometry x="87" y="420" width="320" height="156" as="geometry">
            <mxRectangle x="87" y="420" width="119" height="30" as="alternateBounds" />
          </mxGeometry>
        </mxCell>
        <mxCell id="puWi77wORtsvDcIVcFdr-44" value="" style="shape=partialRectangle;collapsible=0;dropTarget=0;pointerEvents=0;fillColor=none;points=[[0,0.5],[1,0.5]];portConstraint=eastwest;top=0;left=0;right=0;bottom=1;rounded=0;" parent="puWi77wORtsvDcIVcFdr-43" vertex="1">
          <mxGeometry y="30" width="320" height="36" as="geometry" />
        </mxCell>
        <mxCell id="puWi77wORtsvDcIVcFdr-45" value="PK" style="shape=partialRectangle;overflow=hidden;connectable=0;fillColor=#dae8fc;top=0;left=0;bottom=0;right=0;fontStyle=1;labelBackgroundColor=none;labelBorderColor=none;strokeColor=#6c8ebf;rounded=0;" parent="puWi77wORtsvDcIVcFdr-44" vertex="1">
          <mxGeometry width="30" height="36" as="geometry">
            <mxRectangle width="30" height="36" as="alternateBounds" />
          </mxGeometry>
        </mxCell>
        <mxCell id="puWi77wORtsvDcIVcFdr-46" value="id_pessoajuridica [ int - NOT NULL ]" style="shape=partialRectangle;overflow=hidden;connectable=0;fillColor=#dae8fc;top=0;left=0;bottom=0;right=0;align=left;spacingLeft=6;fontStyle=1;labelBackgroundColor=none;labelBorderColor=none;strokeColor=#6c8ebf;rounded=0;" parent="puWi77wORtsvDcIVcFdr-44" vertex="1">
          <mxGeometry x="30" width="290" height="36" as="geometry">
            <mxRectangle width="290" height="36" as="alternateBounds" />
          </mxGeometry>
        </mxCell>
        <mxCell id="puWi77wORtsvDcIVcFdr-59" value="" style="shape=partialRectangle;collapsible=0;dropTarget=0;pointerEvents=0;fillColor=none;points=[[0,0.5],[1,0.5]];portConstraint=eastwest;top=0;left=0;right=0;bottom=1;rounded=0;" parent="puWi77wORtsvDcIVcFdr-43" vertex="1">
          <mxGeometry y="66" width="320" height="30" as="geometry" />
        </mxCell>
        <mxCell id="puWi77wORtsvDcIVcFdr-60" value="FK" style="shape=partialRectangle;overflow=hidden;connectable=0;fillColor=#f8cecc;top=0;left=0;bottom=0;right=0;fontStyle=1;labelBackgroundColor=none;labelBorderColor=none;strokeColor=#b85450;rounded=0;" parent="puWi77wORtsvDcIVcFdr-59" vertex="1">
          <mxGeometry width="30" height="30" as="geometry">
            <mxRectangle width="30" height="30" as="alternateBounds" />
          </mxGeometry>
        </mxCell>
        <mxCell id="puWi77wORtsvDcIVcFdr-61" value="id_cliente" style="shape=partialRectangle;overflow=hidden;connectable=0;fillColor=#f8cecc;top=0;left=0;bottom=0;right=0;align=left;spacingLeft=6;fontStyle=1;labelBackgroundColor=none;labelBorderColor=none;strokeColor=#b85450;rounded=0;" parent="puWi77wORtsvDcIVcFdr-59" vertex="1">
          <mxGeometry x="30" width="290" height="30" as="geometry">
            <mxRectangle width="290" height="30" as="alternateBounds" />
          </mxGeometry>
        </mxCell>
        <mxCell id="puWi77wORtsvDcIVcFdr-47" value="" style="shape=partialRectangle;collapsible=0;dropTarget=0;pointerEvents=0;fillColor=none;points=[[0,0.5],[1,0.5]];portConstraint=eastwest;top=0;left=0;right=0;bottom=0;rounded=0;" parent="puWi77wORtsvDcIVcFdr-43" vertex="1">
          <mxGeometry y="96" width="320" height="60" as="geometry" />
        </mxCell>
        <mxCell id="puWi77wORtsvDcIVcFdr-48" value="" style="shape=partialRectangle;overflow=hidden;connectable=0;fillColor=none;top=0;left=0;bottom=0;right=0;rounded=0;" parent="puWi77wORtsvDcIVcFdr-47" vertex="1">
          <mxGeometry width="30" height="60" as="geometry">
            <mxRectangle width="30" height="60" as="alternateBounds" />
          </mxGeometry>
        </mxCell>
        <mxCell id="puWi77wORtsvDcIVcFdr-49" value="cpnj [ varchar(14) - NOT NULL ]&#xa;razao_social [ varchar(150) - NOT NULL ]&#xa;nome_fantasia [ varchar(150) - NOT NULL ]" style="shape=partialRectangle;overflow=hidden;connectable=0;fillColor=none;top=0;left=0;bottom=0;right=0;align=left;spacingLeft=6;rounded=0;" parent="puWi77wORtsvDcIVcFdr-47" vertex="1">
          <mxGeometry x="30" width="290" height="60" as="geometry">
            <mxRectangle width="290" height="60" as="alternateBounds" />
          </mxGeometry>
        </mxCell>
        <mxCell id="puWi77wORtsvDcIVcFdr-52" style="edgeStyle=orthogonalEdgeStyle;rounded=0;orthogonalLoop=1;jettySize=auto;html=1;entryX=0.5;entryY=0;entryDx=0;entryDy=0;fontFamily=Helvetica;fontSize=12;fontColor=default;startSize=30;" parent="1" source="puWi77wORtsvDcIVcFdr-50" target="puWi77wORtsvDcIVcFdr-36" edge="1">
          <mxGeometry relative="1" as="geometry" />
        </mxCell>
        <mxCell id="puWi77wORtsvDcIVcFdr-53" style="edgeStyle=orthogonalEdgeStyle;rounded=0;orthogonalLoop=1;jettySize=auto;html=1;exitX=0.5;exitY=1;exitDx=0;exitDy=0;entryX=0.5;entryY=0;entryDx=0;entryDy=0;fontFamily=Helvetica;fontSize=12;fontColor=default;startSize=30;" parent="1" source="puWi77wORtsvDcIVcFdr-50" target="puWi77wORtsvDcIVcFdr-43" edge="1">
          <mxGeometry relative="1" as="geometry" />
        </mxCell>
        <mxCell id="puWi77wORtsvDcIVcFdr-50" value="" style="triangle;whiteSpace=wrap;html=1;strokeColor=default;align=center;verticalAlign=middle;fontFamily=Helvetica;fontSize=12;fontColor=default;startSize=30;fillColor=default;rotation=-90;rounded=0;" parent="1" vertex="1">
          <mxGeometry x="-19.99" y="292" width="60" height="80" as="geometry" />
        </mxCell>
        <mxCell id="puWi77wORtsvDcIVcFdr-62" value="ordem_compra" style="shape=table;startSize=30;container=1;collapsible=1;childLayout=tableLayout;fixedRows=1;rowLines=0;fontStyle=1;align=center;resizeLast=1;absoluteArcSize=0;rounded=0;" parent="1" vertex="1">
          <mxGeometry x="409" y="-93" width="320" height="182" as="geometry">
            <mxRectangle x="409" y="-93" width="122" height="30" as="alternateBounds" />
          </mxGeometry>
        </mxCell>
        <mxCell id="puWi77wORtsvDcIVcFdr-63" value="" style="shape=partialRectangle;collapsible=0;dropTarget=0;pointerEvents=0;fillColor=none;points=[[0,0.5],[1,0.5]];portConstraint=eastwest;top=0;left=0;right=0;bottom=1;rounded=0;" parent="puWi77wORtsvDcIVcFdr-62" vertex="1">
          <mxGeometry y="30" width="320" height="30" as="geometry" />
        </mxCell>
        <mxCell id="puWi77wORtsvDcIVcFdr-64" value="PK" style="shape=partialRectangle;overflow=hidden;connectable=0;fillColor=#dae8fc;top=0;left=0;bottom=0;right=0;fontStyle=1;labelBackgroundColor=none;labelBorderColor=none;strokeColor=#6c8ebf;rounded=0;" parent="puWi77wORtsvDcIVcFdr-63" vertex="1">
          <mxGeometry width="30" height="30" as="geometry">
            <mxRectangle width="30" height="30" as="alternateBounds" />
          </mxGeometry>
        </mxCell>
        <mxCell id="puWi77wORtsvDcIVcFdr-65" value="id_compra [ int - NOT NULL]" style="shape=partialRectangle;overflow=hidden;connectable=0;fillColor=#dae8fc;top=0;left=0;bottom=0;right=0;align=left;spacingLeft=6;fontStyle=1;labelBackgroundColor=none;labelBorderColor=none;strokeColor=#6c8ebf;rounded=0;" parent="puWi77wORtsvDcIVcFdr-63" vertex="1">
          <mxGeometry x="30" width="290" height="30" as="geometry">
            <mxRectangle width="290" height="30" as="alternateBounds" />
          </mxGeometry>
        </mxCell>
        <mxCell id="puWi77wORtsvDcIVcFdr-66" value="" style="shape=partialRectangle;collapsible=0;dropTarget=0;pointerEvents=0;fillColor=none;points=[[0,0.5],[1,0.5]];portConstraint=eastwest;top=0;left=0;right=0;bottom=1;rounded=0;" parent="puWi77wORtsvDcIVcFdr-62" vertex="1">
          <mxGeometry y="60" width="320" height="45" as="geometry" />
        </mxCell>
        <mxCell id="puWi77wORtsvDcIVcFdr-67" value="FK" style="shape=partialRectangle;overflow=hidden;connectable=0;fillColor=#f8cecc;top=0;left=0;bottom=0;right=0;fontStyle=1;labelBackgroundColor=none;labelBorderColor=none;strokeColor=#b85450;rounded=0;" parent="puWi77wORtsvDcIVcFdr-66" vertex="1">
          <mxGeometry width="30" height="45" as="geometry">
            <mxRectangle width="30" height="45" as="alternateBounds" />
          </mxGeometry>
        </mxCell>
        <mxCell id="puWi77wORtsvDcIVcFdr-68" value="id_cliente&#xa;id_ativo" style="shape=partialRectangle;overflow=hidden;connectable=0;fillColor=#f8cecc;top=0;left=0;bottom=0;right=0;align=left;spacingLeft=6;fontStyle=1;labelBackgroundColor=none;labelBorderColor=none;strokeColor=#b85450;rounded=0;" parent="puWi77wORtsvDcIVcFdr-66" vertex="1">
          <mxGeometry x="30" width="290" height="45" as="geometry">
            <mxRectangle width="290" height="45" as="alternateBounds" />
          </mxGeometry>
        </mxCell>
        <mxCell id="puWi77wORtsvDcIVcFdr-69" value="" style="shape=partialRectangle;collapsible=0;dropTarget=0;pointerEvents=0;fillColor=none;points=[[0,0.5],[1,0.5]];portConstraint=eastwest;top=0;left=0;right=0;bottom=0;rounded=0;" parent="puWi77wORtsvDcIVcFdr-62" vertex="1">
          <mxGeometry y="105" width="320" height="77" as="geometry" />
        </mxCell>
        <mxCell id="puWi77wORtsvDcIVcFdr-70" value="" style="shape=partialRectangle;overflow=hidden;connectable=0;fillColor=none;top=0;left=0;bottom=0;right=0;rounded=0;" parent="puWi77wORtsvDcIVcFdr-69" vertex="1">
          <mxGeometry width="30" height="77" as="geometry">
            <mxRectangle width="30" height="77" as="alternateBounds" />
          </mxGeometry>
        </mxCell>
        <mxCell id="puWi77wORtsvDcIVcFdr-71" value="valor_compra [ double precision - NOT NULL ]&#xa;data_compra [ data - NOT NULL ]&#xa;quantidade [ int - NOT NULL ]&#xa;status [ varchar(3) - NOT NULL ]" style="shape=partialRectangle;overflow=hidden;connectable=0;fillColor=none;top=0;left=0;bottom=0;right=0;align=left;spacingLeft=6;rounded=0;" parent="puWi77wORtsvDcIVcFdr-69" vertex="1">
          <mxGeometry x="30" width="290" height="77" as="geometry">
            <mxRectangle width="290" height="77" as="alternateBounds" />
          </mxGeometry>
        </mxCell>
        <mxCell id="puWi77wORtsvDcIVcFdr-72" value="ordem_venda" style="shape=table;startSize=30;container=1;collapsible=1;childLayout=tableLayout;fixedRows=1;rowLines=0;fontStyle=1;align=center;resizeLast=1;absoluteArcSize=0;rounded=0;" parent="1" vertex="1">
          <mxGeometry x="407" y="151" width="320" height="184.75" as="geometry">
            <mxRectangle x="407" y="151" width="113" height="30" as="alternateBounds" />
          </mxGeometry>
        </mxCell>
        <mxCell id="puWi77wORtsvDcIVcFdr-73" value="" style="shape=partialRectangle;collapsible=0;dropTarget=0;pointerEvents=0;fillColor=none;points=[[0,0.5],[1,0.5]];portConstraint=eastwest;top=0;left=0;right=0;bottom=1;rounded=0;" parent="puWi77wORtsvDcIVcFdr-72" vertex="1">
          <mxGeometry y="30" width="320" height="30" as="geometry" />
        </mxCell>
        <mxCell id="puWi77wORtsvDcIVcFdr-74" value="PK" style="shape=partialRectangle;overflow=hidden;connectable=0;fillColor=#dae8fc;top=0;left=0;bottom=0;right=0;fontStyle=1;labelBackgroundColor=none;labelBorderColor=none;strokeColor=#6c8ebf;rounded=0;" parent="puWi77wORtsvDcIVcFdr-73" vertex="1">
          <mxGeometry width="30" height="30" as="geometry">
            <mxRectangle width="30" height="30" as="alternateBounds" />
          </mxGeometry>
        </mxCell>
        <mxCell id="puWi77wORtsvDcIVcFdr-75" value="id_pessoajuridica [ int - NOT NULL ]" style="shape=partialRectangle;overflow=hidden;connectable=0;fillColor=#dae8fc;top=0;left=0;bottom=0;right=0;align=left;spacingLeft=6;fontStyle=1;labelBackgroundColor=none;labelBorderColor=none;strokeColor=#6c8ebf;rounded=0;" parent="puWi77wORtsvDcIVcFdr-73" vertex="1">
          <mxGeometry x="30" width="290" height="30" as="geometry">
            <mxRectangle width="290" height="30" as="alternateBounds" />
          </mxGeometry>
        </mxCell>
        <mxCell id="puWi77wORtsvDcIVcFdr-76" value="" style="shape=partialRectangle;collapsible=0;dropTarget=0;pointerEvents=0;fillColor=none;points=[[0,0.5],[1,0.5]];portConstraint=eastwest;top=0;left=0;right=0;bottom=1;rounded=0;" parent="puWi77wORtsvDcIVcFdr-72" vertex="1">
          <mxGeometry y="60" width="320" height="42" as="geometry" />
        </mxCell>
        <mxCell id="puWi77wORtsvDcIVcFdr-77" value="FK" style="shape=partialRectangle;overflow=hidden;connectable=0;fillColor=#f8cecc;top=0;left=0;bottom=0;right=0;fontStyle=1;labelBackgroundColor=none;labelBorderColor=none;strokeColor=#b85450;rounded=0;" parent="puWi77wORtsvDcIVcFdr-76" vertex="1">
          <mxGeometry width="30" height="42" as="geometry">
            <mxRectangle width="30" height="42" as="alternateBounds" />
          </mxGeometry>
        </mxCell>
        <mxCell id="puWi77wORtsvDcIVcFdr-78" value="id_cliente&#xa;id_ativo" style="shape=partialRectangle;overflow=hidden;connectable=0;fillColor=#f8cecc;top=0;left=0;bottom=0;right=0;align=left;spacingLeft=6;fontStyle=1;labelBackgroundColor=none;labelBorderColor=none;strokeColor=#b85450;rounded=0;" parent="puWi77wORtsvDcIVcFdr-76" vertex="1">
          <mxGeometry x="30" width="290" height="42" as="geometry">
            <mxRectangle width="290" height="42" as="alternateBounds" />
          </mxGeometry>
        </mxCell>
        <mxCell id="puWi77wORtsvDcIVcFdr-79" value="" style="shape=partialRectangle;collapsible=0;dropTarget=0;pointerEvents=0;fillColor=none;points=[[0,0.5],[1,0.5]];portConstraint=eastwest;top=0;left=0;right=0;bottom=0;rounded=0;" parent="puWi77wORtsvDcIVcFdr-72" vertex="1">
          <mxGeometry y="102" width="320" height="83" as="geometry" />
        </mxCell>
        <mxCell id="puWi77wORtsvDcIVcFdr-80" value="" style="shape=partialRectangle;overflow=hidden;connectable=0;fillColor=none;top=0;left=0;bottom=0;right=0;rounded=0;" parent="puWi77wORtsvDcIVcFdr-79" vertex="1">
          <mxGeometry width="30" height="83" as="geometry">
            <mxRectangle width="30" height="83" as="alternateBounds" />
          </mxGeometry>
        </mxCell>
        <mxCell id="puWi77wORtsvDcIVcFdr-81" value="valor_venda [ double precision - NOT NULL ]&#xa;data_venda [ data - NOT NULL ]&#xa;quantidade [ int - NOT NULL ]&#xa;status [ varchar(3) - NOT NULL ]" style="shape=partialRectangle;overflow=hidden;connectable=0;fillColor=none;top=0;left=0;bottom=0;right=0;align=left;spacingLeft=6;rounded=0;" parent="puWi77wORtsvDcIVcFdr-79" vertex="1">
          <mxGeometry x="30" width="290" height="83" as="geometry">
            <mxRectangle width="290" height="83" as="alternateBounds" />
          </mxGeometry>
        </mxCell>
        <mxCell id="puWi77wORtsvDcIVcFdr-87" style="edgeStyle=orthogonalEdgeStyle;rounded=0;orthogonalLoop=1;jettySize=auto;html=1;entryX=0;entryY=0.5;entryDx=0;entryDy=0;fontFamily=Helvetica;fontSize=12;fontColor=default;startSize=30;" parent="1" source="puWi77wORtsvDcIVcFdr-5" target="puWi77wORtsvDcIVcFdr-76" edge="1">
          <mxGeometry relative="1" as="geometry" />
        </mxCell>
        <mxCell id="puWi77wORtsvDcIVcFdr-89" value="carteira" style="shape=table;startSize=30;container=1;collapsible=1;childLayout=tableLayout;fixedRows=1;rowLines=0;fontStyle=1;align=center;resizeLast=1;absoluteArcSize=0;rounded=0;" parent="1" vertex="1">
          <mxGeometry x="-701" y="4" width="320" height="129.30232558139556" as="geometry">
            <mxRectangle x="87" y="420" width="119" height="30" as="alternateBounds" />
          </mxGeometry>
        </mxCell>
        <mxCell id="puWi77wORtsvDcIVcFdr-90" value="" style="shape=partialRectangle;collapsible=0;dropTarget=0;pointerEvents=0;fillColor=none;points=[[0,0.5],[1,0.5]];portConstraint=eastwest;top=0;left=0;right=0;bottom=1;rounded=0;" parent="puWi77wORtsvDcIVcFdr-89" vertex="1">
          <mxGeometry y="30" width="320" height="30" as="geometry" />
        </mxCell>
        <mxCell id="puWi77wORtsvDcIVcFdr-91" value="PK" style="shape=partialRectangle;overflow=hidden;connectable=0;fillColor=#dae8fc;top=0;left=0;bottom=0;right=0;fontStyle=1;labelBackgroundColor=none;labelBorderColor=none;strokeColor=#6c8ebf;rounded=0;" parent="puWi77wORtsvDcIVcFdr-90" vertex="1">
          <mxGeometry width="30" height="30" as="geometry">
            <mxRectangle width="30" height="30" as="alternateBounds" />
          </mxGeometry>
        </mxCell>
        <mxCell id="puWi77wORtsvDcIVcFdr-92" value="id_carteira [ int - NOT NULL ]" style="shape=partialRectangle;overflow=hidden;connectable=0;fillColor=#dae8fc;top=0;left=0;bottom=0;right=0;align=left;spacingLeft=6;fontStyle=1;labelBackgroundColor=none;labelBorderColor=none;strokeColor=#6c8ebf;rounded=0;" parent="puWi77wORtsvDcIVcFdr-90" vertex="1">
          <mxGeometry x="30" width="290" height="30" as="geometry">
            <mxRectangle width="290" height="30" as="alternateBounds" />
          </mxGeometry>
        </mxCell>
        <mxCell id="puWi77wORtsvDcIVcFdr-93" value="" style="shape=partialRectangle;collapsible=0;dropTarget=0;pointerEvents=0;fillColor=none;points=[[0,0.5],[1,0.5]];portConstraint=eastwest;top=0;left=0;right=0;bottom=1;rounded=0;" parent="puWi77wORtsvDcIVcFdr-89" vertex="1">
          <mxGeometry y="60" width="320" height="42" as="geometry" />
        </mxCell>
        <mxCell id="puWi77wORtsvDcIVcFdr-94" value="FK" style="shape=partialRectangle;overflow=hidden;connectable=0;fillColor=#f8cecc;top=0;left=0;bottom=0;right=0;fontStyle=1;labelBackgroundColor=none;labelBorderColor=none;strokeColor=#b85450;rounded=0;" parent="puWi77wORtsvDcIVcFdr-93" vertex="1">
          <mxGeometry width="30" height="42" as="geometry">
            <mxRectangle width="30" height="42" as="alternateBounds" />
          </mxGeometry>
        </mxCell>
        <mxCell id="puWi77wORtsvDcIVcFdr-95" value="id_cliente&#xa;id_ativo" style="shape=partialRectangle;overflow=hidden;connectable=0;fillColor=#f8cecc;top=0;left=0;bottom=0;right=0;align=left;spacingLeft=6;fontStyle=1;labelBackgroundColor=none;labelBorderColor=none;strokeColor=#b85450;rounded=0;" parent="puWi77wORtsvDcIVcFdr-93" vertex="1">
          <mxGeometry x="30" width="290" height="42" as="geometry">
            <mxRectangle width="290" height="42" as="alternateBounds" />
          </mxGeometry>
        </mxCell>
        <mxCell id="puWi77wORtsvDcIVcFdr-96" value="" style="shape=partialRectangle;collapsible=0;dropTarget=0;pointerEvents=0;fillColor=none;points=[[0,0.5],[1,0.5]];portConstraint=eastwest;top=0;left=0;right=0;bottom=0;rounded=0;" parent="puWi77wORtsvDcIVcFdr-89" vertex="1">
          <mxGeometry y="102" width="320" height="27" as="geometry" />
        </mxCell>
        <mxCell id="puWi77wORtsvDcIVcFdr-97" value="" style="shape=partialRectangle;overflow=hidden;connectable=0;fillColor=none;top=0;left=0;bottom=0;right=0;rounded=0;" parent="puWi77wORtsvDcIVcFdr-96" vertex="1">
          <mxGeometry width="30" height="27" as="geometry">
            <mxRectangle width="30" height="27" as="alternateBounds" />
          </mxGeometry>
        </mxCell>
        <mxCell id="puWi77wORtsvDcIVcFdr-98" value="quantidade [ int - NOT NULL ]" style="shape=partialRectangle;overflow=hidden;connectable=0;fillColor=none;top=0;left=0;bottom=0;right=0;align=left;spacingLeft=6;rounded=0;" parent="puWi77wORtsvDcIVcFdr-96" vertex="1">
          <mxGeometry x="30" width="290" height="27" as="geometry">
            <mxRectangle width="290" height="27" as="alternateBounds" />
          </mxGeometry>
        </mxCell>
        <mxCell id="puWi77wORtsvDcIVcFdr-99" style="edgeStyle=orthogonalEdgeStyle;rounded=0;orthogonalLoop=1;jettySize=auto;html=1;entryX=1;entryY=0.5;entryDx=0;entryDy=0;fontFamily=Helvetica;fontSize=12;fontColor=default;startSize=30;" parent="1" source="puWi77wORtsvDcIVcFdr-5" target="puWi77wORtsvDcIVcFdr-93" edge="1">
          <mxGeometry relative="1" as="geometry">
            <Array as="points">
              <mxPoint x="-312" y="202" />
              <mxPoint x="-312" y="85" />
            </Array>
          </mxGeometry>
        </mxCell>
        <mxCell id="puWi77wORtsvDcIVcFdr-110" style="edgeStyle=orthogonalEdgeStyle;rounded=0;orthogonalLoop=1;jettySize=auto;html=1;entryX=1;entryY=0.5;entryDx=0;entryDy=0;fontFamily=Helvetica;fontSize=12;fontColor=default;startSize=30;" parent="1" source="puWi77wORtsvDcIVcFdr-100" target="puWi77wORtsvDcIVcFdr-93" edge="1">
          <mxGeometry relative="1" as="geometry">
            <Array as="points">
              <mxPoint x="-312" y="-164" />
              <mxPoint x="-312" y="85" />
            </Array>
          </mxGeometry>
        </mxCell>
        <mxCell id="puWi77wORtsvDcIVcFdr-135" style="edgeStyle=orthogonalEdgeStyle;rounded=0;orthogonalLoop=1;jettySize=auto;html=1;entryX=1;entryY=0.5;entryDx=0;entryDy=0;fontFamily=Helvetica;fontSize=12;fontColor=default;startSize=30;" parent="1" source="puWi77wORtsvDcIVcFdr-100" target="puWi77wORtsvDcIVcFdr-129" edge="1">
          <mxGeometry relative="1" as="geometry" />
        </mxCell>
        <mxCell id="puWi77wORtsvDcIVcFdr-100" value="ativo" style="shape=table;startSize=30;container=1;collapsible=1;childLayout=tableLayout;fixedRows=1;rowLines=0;fontStyle=1;align=center;resizeLast=1;absoluteArcSize=0;rounded=0;" parent="1" vertex="1">
          <mxGeometry x="-194" y="-249" width="320" height="208.35158666513945" as="geometry">
            <mxRectangle x="87" y="420" width="119" height="30" as="alternateBounds" />
          </mxGeometry>
        </mxCell>
        <mxCell id="puWi77wORtsvDcIVcFdr-101" value="" style="shape=partialRectangle;collapsible=0;dropTarget=0;pointerEvents=0;fillColor=none;points=[[0,0.5],[1,0.5]];portConstraint=eastwest;top=0;left=0;right=0;bottom=1;rounded=0;" parent="puWi77wORtsvDcIVcFdr-100" vertex="1">
          <mxGeometry y="30" width="320" height="30" as="geometry" />
        </mxCell>
        <mxCell id="puWi77wORtsvDcIVcFdr-102" value="PK" style="shape=partialRectangle;overflow=hidden;connectable=0;fillColor=#dae8fc;top=0;left=0;bottom=0;right=0;fontStyle=1;labelBackgroundColor=none;labelBorderColor=none;strokeColor=#6c8ebf;rounded=0;" parent="puWi77wORtsvDcIVcFdr-101" vertex="1">
          <mxGeometry width="30" height="30" as="geometry">
            <mxRectangle width="30" height="30" as="alternateBounds" />
          </mxGeometry>
        </mxCell>
        <mxCell id="puWi77wORtsvDcIVcFdr-103" value="id_ativo [ int - NOT NULL ]" style="shape=partialRectangle;overflow=hidden;connectable=0;fillColor=#dae8fc;top=0;left=0;bottom=0;right=0;align=left;spacingLeft=6;fontStyle=1;labelBackgroundColor=none;labelBorderColor=none;strokeColor=#6c8ebf;rounded=0;" parent="puWi77wORtsvDcIVcFdr-101" vertex="1">
          <mxGeometry x="30" width="290" height="30" as="geometry">
            <mxRectangle width="290" height="30" as="alternateBounds" />
          </mxGeometry>
        </mxCell>
        <mxCell id="puWi77wORtsvDcIVcFdr-121" value="" style="shape=partialRectangle;collapsible=0;dropTarget=0;pointerEvents=0;fillColor=none;points=[[0,0.5],[1,0.5]];portConstraint=eastwest;top=0;left=0;right=0;bottom=1;rounded=0;" parent="puWi77wORtsvDcIVcFdr-100" vertex="1">
          <mxGeometry y="60" width="320" height="30" as="geometry" />
        </mxCell>
        <mxCell id="puWi77wORtsvDcIVcFdr-122" value="FK" style="shape=partialRectangle;overflow=hidden;connectable=0;fillColor=#f8cecc;top=0;left=0;bottom=0;right=0;fontStyle=1;labelBackgroundColor=none;labelBorderColor=none;strokeColor=#b85450;rounded=0;" parent="puWi77wORtsvDcIVcFdr-121" vertex="1">
          <mxGeometry width="30" height="30" as="geometry">
            <mxRectangle width="30" height="30" as="alternateBounds" />
          </mxGeometry>
        </mxCell>
        <mxCell id="puWi77wORtsvDcIVcFdr-123" value="id_empresa" style="shape=partialRectangle;overflow=hidden;connectable=0;fillColor=#f8cecc;top=0;left=0;bottom=0;right=0;align=left;spacingLeft=6;fontStyle=1;labelBackgroundColor=none;labelBorderColor=none;strokeColor=#b85450;rounded=0;" parent="puWi77wORtsvDcIVcFdr-121" vertex="1">
          <mxGeometry x="30" width="290" height="30" as="geometry">
            <mxRectangle width="290" height="30" as="alternateBounds" />
          </mxGeometry>
        </mxCell>
        <mxCell id="puWi77wORtsvDcIVcFdr-107" value="" style="shape=partialRectangle;collapsible=0;dropTarget=0;pointerEvents=0;fillColor=none;points=[[0,0.5],[1,0.5]];portConstraint=eastwest;top=0;left=0;right=0;bottom=0;rounded=0;" parent="puWi77wORtsvDcIVcFdr-100" vertex="1">
          <mxGeometry y="90" width="320" height="118" as="geometry" />
        </mxCell>
        <mxCell id="puWi77wORtsvDcIVcFdr-108" value="" style="shape=partialRectangle;overflow=hidden;connectable=0;fillColor=none;top=0;left=0;bottom=0;right=0;rounded=0;" parent="puWi77wORtsvDcIVcFdr-107" vertex="1">
          <mxGeometry width="30" height="118" as="geometry">
            <mxRectangle width="30" height="118" as="alternateBounds" />
          </mxGeometry>
        </mxCell>
        <mxCell id="puWi77wORtsvDcIVcFdr-109" value="sigla [ varchar (10) - NOT NULL ]&#xa;nome [ varchar(50) - NOT NULL ]&#xa;atualizacao [ data - NOT NULL ]&#xa;quantidades_papeis [ int - NOT NULL ]&#xa;valor_max [ double precision - NOT NULL ]&#xa;valor_min [ double precision - NOT NULL ]&#xa;valor [ double precision - NOT NULL ]" style="shape=partialRectangle;overflow=hidden;connectable=0;fillColor=none;top=0;left=0;bottom=0;right=0;align=left;spacingLeft=6;rounded=0;" parent="puWi77wORtsvDcIVcFdr-107" vertex="1">
          <mxGeometry x="30" width="290" height="118" as="geometry">
            <mxRectangle width="290" height="118" as="alternateBounds" />
          </mxGeometry>
        </mxCell>
        <mxCell id="puWi77wORtsvDcIVcFdr-124" style="edgeStyle=orthogonalEdgeStyle;rounded=0;orthogonalLoop=1;jettySize=auto;html=1;fontFamily=Helvetica;fontSize=12;fontColor=default;startSize=30;" parent="1" source="puWi77wORtsvDcIVcFdr-111" target="puWi77wORtsvDcIVcFdr-121" edge="1">
          <mxGeometry relative="1" as="geometry" />
        </mxCell>
        <mxCell id="puWi77wORtsvDcIVcFdr-111" value="empresa" style="shape=table;startSize=30;container=1;collapsible=1;childLayout=tableLayout;fixedRows=1;rowLines=0;fontStyle=1;align=center;resizeLast=1;absoluteArcSize=0;rounded=0;" parent="1" vertex="1">
          <mxGeometry x="163" y="-383" width="320" height="123" as="geometry">
            <mxRectangle x="87" y="420" width="119" height="30" as="alternateBounds" />
          </mxGeometry>
        </mxCell>
        <mxCell id="puWi77wORtsvDcIVcFdr-112" value="" style="shape=partialRectangle;collapsible=0;dropTarget=0;pointerEvents=0;fillColor=none;points=[[0,0.5],[1,0.5]];portConstraint=eastwest;top=0;left=0;right=0;bottom=1;rounded=0;" parent="puWi77wORtsvDcIVcFdr-111" vertex="1">
          <mxGeometry y="30" width="320" height="30" as="geometry" />
        </mxCell>
        <mxCell id="puWi77wORtsvDcIVcFdr-113" value="PK" style="shape=partialRectangle;overflow=hidden;connectable=0;fillColor=#dae8fc;top=0;left=0;bottom=0;right=0;fontStyle=1;labelBackgroundColor=none;labelBorderColor=none;strokeColor=#6c8ebf;rounded=0;" parent="puWi77wORtsvDcIVcFdr-112" vertex="1">
          <mxGeometry width="30" height="30" as="geometry">
            <mxRectangle width="30" height="30" as="alternateBounds" />
          </mxGeometry>
        </mxCell>
        <mxCell id="puWi77wORtsvDcIVcFdr-114" value="id_empresa [ int - NOT NULL ]" style="shape=partialRectangle;overflow=hidden;connectable=0;fillColor=#dae8fc;top=0;left=0;bottom=0;right=0;align=left;spacingLeft=6;fontStyle=1;labelBackgroundColor=none;labelBorderColor=none;strokeColor=#6c8ebf;rounded=0;" parent="puWi77wORtsvDcIVcFdr-112" vertex="1">
          <mxGeometry x="30" width="290" height="30" as="geometry">
            <mxRectangle width="290" height="30" as="alternateBounds" />
          </mxGeometry>
        </mxCell>
        <mxCell id="puWi77wORtsvDcIVcFdr-118" value="" style="shape=partialRectangle;collapsible=0;dropTarget=0;pointerEvents=0;fillColor=none;points=[[0,0.5],[1,0.5]];portConstraint=eastwest;top=0;left=0;right=0;bottom=0;rounded=0;" parent="puWi77wORtsvDcIVcFdr-111" vertex="1">
          <mxGeometry y="60" width="320" height="63" as="geometry" />
        </mxCell>
        <mxCell id="puWi77wORtsvDcIVcFdr-119" value="" style="shape=partialRectangle;overflow=hidden;connectable=0;fillColor=none;top=0;left=0;bottom=0;right=0;rounded=0;" parent="puWi77wORtsvDcIVcFdr-118" vertex="1">
          <mxGeometry width="30" height="63" as="geometry">
            <mxRectangle width="30" height="63" as="alternateBounds" />
          </mxGeometry>
        </mxCell>
        <mxCell id="puWi77wORtsvDcIVcFdr-120" value="razao_social [ varchar(150) - NOT NULL ]&#xa;nome_fantasia [ varchar(150) - NOT NULL ]&#xa;cnpj [ varchar(14) - NOT NULL ]" style="shape=partialRectangle;overflow=hidden;connectable=0;fillColor=none;top=0;left=0;bottom=0;right=0;align=left;spacingLeft=6;rounded=0;" parent="puWi77wORtsvDcIVcFdr-118" vertex="1">
          <mxGeometry x="30" width="290" height="63" as="geometry">
            <mxRectangle width="290" height="63" as="alternateBounds" />
          </mxGeometry>
        </mxCell>
        <mxCell id="puWi77wORtsvDcIVcFdr-125" value="historico_preco" style="shape=table;startSize=30;container=1;collapsible=1;childLayout=tableLayout;fixedRows=1;rowLines=0;fontStyle=1;align=center;resizeLast=1;absoluteArcSize=0;rounded=0;" parent="1" vertex="1">
          <mxGeometry x="-514" y="-457" width="320" height="138" as="geometry">
            <mxRectangle x="-514" y="-457" width="119" height="30" as="alternateBounds" />
          </mxGeometry>
        </mxCell>
        <mxCell id="puWi77wORtsvDcIVcFdr-126" value="" style="shape=partialRectangle;collapsible=0;dropTarget=0;pointerEvents=0;fillColor=none;points=[[0,0.5],[1,0.5]];portConstraint=eastwest;top=0;left=0;right=0;bottom=1;rounded=0;" parent="puWi77wORtsvDcIVcFdr-125" vertex="1">
          <mxGeometry y="30" width="320" height="30" as="geometry" />
        </mxCell>
        <mxCell id="puWi77wORtsvDcIVcFdr-127" value="PK" style="shape=partialRectangle;overflow=hidden;connectable=0;fillColor=#dae8fc;top=0;left=0;bottom=0;right=0;fontStyle=1;labelBackgroundColor=none;labelBorderColor=none;strokeColor=#6c8ebf;rounded=0;" parent="puWi77wORtsvDcIVcFdr-126" vertex="1">
          <mxGeometry width="30" height="30" as="geometry">
            <mxRectangle width="30" height="30" as="alternateBounds" />
          </mxGeometry>
        </mxCell>
        <mxCell id="puWi77wORtsvDcIVcFdr-128" value="id [ int - NOT NULL ]" style="shape=partialRectangle;overflow=hidden;connectable=0;fillColor=#dae8fc;top=0;left=0;bottom=0;right=0;align=left;spacingLeft=6;fontStyle=1;labelBackgroundColor=none;labelBorderColor=none;strokeColor=#6c8ebf;rounded=0;" parent="puWi77wORtsvDcIVcFdr-126" vertex="1">
          <mxGeometry x="30" width="290" height="30" as="geometry">
            <mxRectangle width="290" height="30" as="alternateBounds" />
          </mxGeometry>
        </mxCell>
        <mxCell id="puWi77wORtsvDcIVcFdr-129" value="" style="shape=partialRectangle;collapsible=0;dropTarget=0;pointerEvents=0;fillColor=none;points=[[0,0.5],[1,0.5]];portConstraint=eastwest;top=0;left=0;right=0;bottom=1;rounded=0;" parent="puWi77wORtsvDcIVcFdr-125" vertex="1">
          <mxGeometry y="60" width="320" height="31" as="geometry" />
        </mxCell>
        <mxCell id="puWi77wORtsvDcIVcFdr-130" value="FK" style="shape=partialRectangle;overflow=hidden;connectable=0;fillColor=#f8cecc;top=0;left=0;bottom=0;right=0;fontStyle=1;labelBackgroundColor=none;labelBorderColor=none;strokeColor=#b85450;rounded=0;" parent="puWi77wORtsvDcIVcFdr-129" vertex="1">
          <mxGeometry width="30" height="31" as="geometry">
            <mxRectangle width="30" height="31" as="alternateBounds" />
          </mxGeometry>
        </mxCell>
        <mxCell id="puWi77wORtsvDcIVcFdr-131" value="id_ativo" style="shape=partialRectangle;overflow=hidden;connectable=0;fillColor=#f8cecc;top=0;left=0;bottom=0;right=0;align=left;spacingLeft=6;fontStyle=1;labelBackgroundColor=none;labelBorderColor=none;strokeColor=#b85450;rounded=0;" parent="puWi77wORtsvDcIVcFdr-129" vertex="1">
          <mxGeometry x="30" width="290" height="31" as="geometry">
            <mxRectangle width="290" height="31" as="alternateBounds" />
          </mxGeometry>
        </mxCell>
        <mxCell id="puWi77wORtsvDcIVcFdr-132" value="" style="shape=partialRectangle;collapsible=0;dropTarget=0;pointerEvents=0;fillColor=none;points=[[0,0.5],[1,0.5]];portConstraint=eastwest;top=0;left=0;right=0;bottom=0;rounded=0;" parent="puWi77wORtsvDcIVcFdr-125" vertex="1">
          <mxGeometry y="91" width="320" height="47" as="geometry" />
        </mxCell>
        <mxCell id="puWi77wORtsvDcIVcFdr-133" value="" style="shape=partialRectangle;overflow=hidden;connectable=0;fillColor=none;top=0;left=0;bottom=0;right=0;rounded=0;" parent="puWi77wORtsvDcIVcFdr-132" vertex="1">
          <mxGeometry width="30" height="47" as="geometry">
            <mxRectangle width="30" height="47" as="alternateBounds" />
          </mxGeometry>
        </mxCell>
        <mxCell id="puWi77wORtsvDcIVcFdr-134" value="data_valor [ date - NOT NULL ]&#xa;valor_do_ativo [ double precision - NOT NULL ]" style="shape=partialRectangle;overflow=hidden;connectable=0;fillColor=none;top=0;left=0;bottom=0;right=0;align=left;spacingLeft=6;rounded=0;" parent="puWi77wORtsvDcIVcFdr-132" vertex="1">
          <mxGeometry x="30" width="290" height="47" as="geometry">
            <mxRectangle width="290" height="47" as="alternateBounds" />
          </mxGeometry>
        </mxCell>
        <mxCell id="puWi77wORtsvDcIVcFdr-137" value="" style="endArrow=none;dashed=1;html=1;rounded=0;fontFamily=Helvetica;fontSize=12;fontColor=default;startSize=30;entryX=0.5;entryY=1;entryDx=0;entryDy=0;exitX=1;exitY=0.5;exitDx=0;exitDy=0;" parent="1" source="puWi77wORtsvDcIVcFdr-129" target="QA9qV7AMMCkb-KGyH2_j-1" edge="1">
          <mxGeometry width="50" height="50" relative="1" as="geometry">
            <mxPoint x="-360" y="-179" as="sourcePoint" />
            <mxPoint x="-98" y="-394" as="targetPoint" />
          </mxGeometry>
        </mxCell>
        <mxCell id="QA9qV7AMMCkb-KGyH2_j-1" value=":afterUpdate" style="rounded=0;whiteSpace=wrap;html=1;" parent="1" vertex="1">
          <mxGeometry x="-157" y="-432" width="120" height="26" as="geometry" />
        </mxCell>
        <mxCell id="P6n42Kn4o7UlAnnd9_Lc-1" style="edgeStyle=orthogonalEdgeStyle;rounded=0;orthogonalLoop=1;jettySize=auto;html=1;entryX=0;entryY=0.5;entryDx=0;entryDy=0;" edge="1" parent="1" source="puWi77wORtsvDcIVcFdr-101" target="puWi77wORtsvDcIVcFdr-66">
          <mxGeometry relative="1" as="geometry">
            <Array as="points">
              <mxPoint x="193" y="-204" />
              <mxPoint x="193" y="-10" />
            </Array>
          </mxGeometry>
        </mxCell>
        <mxCell id="P6n42Kn4o7UlAnnd9_Lc-2" style="edgeStyle=orthogonalEdgeStyle;rounded=0;orthogonalLoop=1;jettySize=auto;html=1;entryX=0;entryY=0.5;entryDx=0;entryDy=0;" edge="1" parent="1" source="puWi77wORtsvDcIVcFdr-101" target="puWi77wORtsvDcIVcFdr-76">
          <mxGeometry relative="1" as="geometry">
            <Array as="points">
              <mxPoint x="308" y="-204" />
              <mxPoint x="308" y="232" />
            </Array>
          </mxGeometry>
        </mxCell>
      </root>
    </mxGraphModel>
  </diagram>
  <diagram id="SdaCGU03NyWgbpi32qPf" name="Documentação">
    <mxGraphModel dx="2026" dy="1120" grid="0" gridSize="10" guides="1" tooltips="1" connect="1" arrows="1" fold="1" page="0" pageScale="1" pageWidth="827" pageHeight="1169" math="0" shadow="0">
      <root>
        <mxCell id="0" />
        <mxCell id="1" parent="0" />
        <mxCell id="apu23WpULG9I45FXHRRK-1" value="cliente" style="shape=table;startSize=30;container=1;collapsible=1;childLayout=tableLayout;fixedRows=1;rowLines=0;fontStyle=1;align=center;resizeLast=1;absoluteArcSize=0;rounded=0;" parent="1" vertex="1">
          <mxGeometry x="-213" y="-111" width="344.75" height="144" as="geometry" />
        </mxCell>
        <mxCell id="apu23WpULG9I45FXHRRK-2" value="" style="shape=partialRectangle;collapsible=0;dropTarget=0;pointerEvents=0;fillColor=none;points=[[0,0.5],[1,0.5]];portConstraint=eastwest;top=0;left=0;right=0;bottom=1;rounded=0;" parent="apu23WpULG9I45FXHRRK-1" vertex="1">
          <mxGeometry y="30" width="344.75" height="30" as="geometry" />
        </mxCell>
        <mxCell id="apu23WpULG9I45FXHRRK-3" value="PK" style="shape=partialRectangle;overflow=hidden;connectable=0;fillColor=#dae8fc;top=0;left=0;bottom=0;right=0;fontStyle=1;labelBackgroundColor=none;labelBorderColor=none;strokeColor=#6c8ebf;rounded=0;" parent="apu23WpULG9I45FXHRRK-2" vertex="1">
          <mxGeometry width="30" height="30" as="geometry">
            <mxRectangle width="30" height="30" as="alternateBounds" />
          </mxGeometry>
        </mxCell>
        <mxCell id="apu23WpULG9I45FXHRRK-4" value="id_cliente [ int - NOT NULL ]" style="shape=partialRectangle;overflow=hidden;connectable=0;fillColor=#dae8fc;top=0;left=0;bottom=0;right=0;align=left;spacingLeft=6;fontStyle=1;labelBackgroundColor=none;labelBorderColor=none;strokeColor=#6c8ebf;rounded=0;" parent="apu23WpULG9I45FXHRRK-2" vertex="1">
          <mxGeometry x="30" width="314.75" height="30" as="geometry">
            <mxRectangle width="314.75" height="30" as="alternateBounds" />
          </mxGeometry>
        </mxCell>
        <mxCell id="apu23WpULG9I45FXHRRK-5" value="" style="shape=partialRectangle;collapsible=0;dropTarget=0;pointerEvents=0;fillColor=none;points=[[0,0.5],[1,0.5]];portConstraint=eastwest;top=0;left=0;right=0;bottom=0;rounded=0;" parent="apu23WpULG9I45FXHRRK-1" vertex="1">
          <mxGeometry y="60" width="344.75" height="84" as="geometry" />
        </mxCell>
        <mxCell id="apu23WpULG9I45FXHRRK-6" value="" style="shape=partialRectangle;overflow=hidden;connectable=0;fillColor=none;top=0;left=0;bottom=0;right=0;rounded=0;" parent="apu23WpULG9I45FXHRRK-5" vertex="1">
          <mxGeometry width="30" height="84" as="geometry">
            <mxRectangle width="30" height="84" as="alternateBounds" />
          </mxGeometry>
        </mxCell>
        <mxCell id="apu23WpULG9I45FXHRRK-7" value="tipo [ varchar(2) - NOT NULL ]&#xa;usuario [ varchar(50) - NOT NULL ]&#xa;senha [ varchar(50) - NOT NULL ]&#xa;e-mail [ varchar(50) - NOT NULL ]&#xa;saldo [ double precision - NOT NULL ]" style="shape=partialRectangle;overflow=hidden;connectable=0;fillColor=none;top=0;left=0;bottom=0;right=0;align=left;spacingLeft=6;rounded=0;" parent="apu23WpULG9I45FXHRRK-5" vertex="1">
          <mxGeometry x="30" width="314.75" height="84" as="geometry">
            <mxRectangle width="314.75" height="84" as="alternateBounds" />
          </mxGeometry>
        </mxCell>
        <mxCell id="CRmszO78KMvymkp6uQd1-1" value="&lt;h1&gt;cliente&lt;/h1&gt;&lt;p&gt;&lt;b&gt;- id_cliente: &lt;/b&gt;Campo identificador da tabela&lt;/p&gt;&lt;p&gt;&lt;b&gt;- tipo:&lt;/b&gt;&amp;nbsp;Guarda informações sobre o tipo de usuário que iremos padronizar como PF (pessoa física) e PJ (pessoa jurídica). Caso seja necessário, poderemos adicionar mais um tipo, que seria o AA (administrador)&lt;/p&gt;&lt;p&gt;&lt;b&gt;- usuario&lt;/b&gt;: Campo responsável por ser um dos métodos de acesso ao sistema, solicitando no momento do cadastro do novo cliente&lt;/p&gt;&lt;p&gt;&lt;b&gt;- senha&lt;/b&gt;: Campo que será criptografado e armazenará a senha do usuário do sistema&lt;/p&gt;&lt;p&gt;&lt;b&gt;- e-mail&lt;/b&gt;: Informação necessária para, caso seja necessário, enviar e-mails de notificação&lt;/p&gt;&lt;p&gt;&lt;b&gt;- saldo&lt;/b&gt;: Saldo que contabiliza os valores das transações a serem executadas no sistema&lt;/p&gt;" style="text;html=1;spacing=14;spacingTop=-21;whiteSpace=wrap;overflow=hidden;rounded=0;glass=0;strokeColor=default;" parent="1" vertex="1">
          <mxGeometry x="192" y="-177" width="551" height="264" as="geometry" />
        </mxCell>
        <mxCell id="CRmszO78KMvymkp6uQd1-2" style="edgeStyle=orthogonalEdgeStyle;rounded=0;orthogonalLoop=1;jettySize=auto;html=1;entryX=1.012;entryY=0.071;entryDx=0;entryDy=0;entryPerimeter=0;" parent="1" source="CRmszO78KMvymkp6uQd1-1" target="apu23WpULG9I45FXHRRK-5" edge="1">
          <mxGeometry relative="1" as="geometry" />
        </mxCell>
        <mxCell id="9TkyVXnDGDksgitPdztk-1" value="pessoafisica" style="shape=table;startSize=30;container=1;collapsible=1;childLayout=tableLayout;fixedRows=1;rowLines=0;fontStyle=1;align=center;resizeLast=1;absoluteArcSize=0;rounded=0;" parent="1" vertex="1">
          <mxGeometry x="-213" y="178" width="320" height="154" as="geometry">
            <mxRectangle x="-213" y="205" width="107" height="30" as="alternateBounds" />
          </mxGeometry>
        </mxCell>
        <mxCell id="9TkyVXnDGDksgitPdztk-2" value="" style="shape=partialRectangle;collapsible=0;dropTarget=0;pointerEvents=0;fillColor=none;points=[[0,0.5],[1,0.5]];portConstraint=eastwest;top=0;left=0;right=0;bottom=1;rounded=0;" parent="9TkyVXnDGDksgitPdztk-1" vertex="1">
          <mxGeometry y="30" width="320" height="35" as="geometry" />
        </mxCell>
        <mxCell id="9TkyVXnDGDksgitPdztk-3" value="PK" style="shape=partialRectangle;overflow=hidden;connectable=0;fillColor=#dae8fc;top=0;left=0;bottom=0;right=0;fontStyle=1;labelBackgroundColor=none;labelBorderColor=none;strokeColor=#6c8ebf;rounded=0;" parent="9TkyVXnDGDksgitPdztk-2" vertex="1">
          <mxGeometry width="30" height="35" as="geometry">
            <mxRectangle width="30" height="35" as="alternateBounds" />
          </mxGeometry>
        </mxCell>
        <mxCell id="9TkyVXnDGDksgitPdztk-4" value="id_pessoafisica [ int - NOT NULL ]" style="shape=partialRectangle;overflow=hidden;connectable=0;fillColor=#dae8fc;top=0;left=0;bottom=0;right=0;align=left;spacingLeft=6;fontStyle=1;labelBackgroundColor=none;labelBorderColor=none;strokeColor=#6c8ebf;rounded=0;" parent="9TkyVXnDGDksgitPdztk-2" vertex="1">
          <mxGeometry x="30" width="290" height="35" as="geometry">
            <mxRectangle width="290" height="35" as="alternateBounds" />
          </mxGeometry>
        </mxCell>
        <mxCell id="9TkyVXnDGDksgitPdztk-5" value="" style="shape=partialRectangle;collapsible=0;dropTarget=0;pointerEvents=0;fillColor=none;points=[[0,0.5],[1,0.5]];portConstraint=eastwest;top=0;left=0;right=0;bottom=1;rounded=0;" parent="9TkyVXnDGDksgitPdztk-1" vertex="1">
          <mxGeometry y="65" width="320" height="30" as="geometry" />
        </mxCell>
        <mxCell id="9TkyVXnDGDksgitPdztk-6" value="FK" style="shape=partialRectangle;overflow=hidden;connectable=0;fillColor=#f8cecc;top=0;left=0;bottom=0;right=0;fontStyle=1;labelBackgroundColor=none;labelBorderColor=none;strokeColor=#b85450;rounded=0;" parent="9TkyVXnDGDksgitPdztk-5" vertex="1">
          <mxGeometry width="30" height="30" as="geometry">
            <mxRectangle width="30" height="30" as="alternateBounds" />
          </mxGeometry>
        </mxCell>
        <mxCell id="9TkyVXnDGDksgitPdztk-7" value="id_cliente" style="shape=partialRectangle;overflow=hidden;connectable=0;fillColor=#f8cecc;top=0;left=0;bottom=0;right=0;align=left;spacingLeft=6;fontStyle=1;labelBackgroundColor=none;labelBorderColor=none;strokeColor=#b85450;rounded=0;" parent="9TkyVXnDGDksgitPdztk-5" vertex="1">
          <mxGeometry x="30" width="290" height="30" as="geometry">
            <mxRectangle width="290" height="30" as="alternateBounds" />
          </mxGeometry>
        </mxCell>
        <mxCell id="9TkyVXnDGDksgitPdztk-8" value="" style="shape=partialRectangle;collapsible=0;dropTarget=0;pointerEvents=0;fillColor=none;points=[[0,0.5],[1,0.5]];portConstraint=eastwest;top=0;left=0;right=0;bottom=0;rounded=0;" parent="9TkyVXnDGDksgitPdztk-1" vertex="1">
          <mxGeometry y="95" width="320" height="59" as="geometry" />
        </mxCell>
        <mxCell id="9TkyVXnDGDksgitPdztk-9" value="" style="shape=partialRectangle;overflow=hidden;connectable=0;fillColor=none;top=0;left=0;bottom=0;right=0;rounded=0;" parent="9TkyVXnDGDksgitPdztk-8" vertex="1">
          <mxGeometry width="30" height="59" as="geometry">
            <mxRectangle width="30" height="59" as="alternateBounds" />
          </mxGeometry>
        </mxCell>
        <mxCell id="9TkyVXnDGDksgitPdztk-10" value="cpf [ varchar(11) - NOT NULL ]&#xa;nome [ varchar(150) - NOT NULL ]&#xa;nascimento [ data - NOT NULL ]" style="shape=partialRectangle;overflow=hidden;connectable=0;fillColor=none;top=0;left=0;bottom=0;right=0;align=left;spacingLeft=6;rounded=0;" parent="9TkyVXnDGDksgitPdztk-8" vertex="1">
          <mxGeometry x="30" width="290" height="59" as="geometry">
            <mxRectangle width="290" height="59" as="alternateBounds" />
          </mxGeometry>
        </mxCell>
        <mxCell id="9TkyVXnDGDksgitPdztk-11" value="&lt;h1&gt;pessoafisica&lt;/h1&gt;&lt;p&gt;&lt;b&gt;- id_pessoafisica: &lt;/b&gt;Campo de identificação da tabela&lt;/p&gt;&lt;p&gt;&lt;b&gt;- id_cliente&lt;/b&gt;: Chave estrangeira da tabela &quot;cliente&quot; para gerar a identificação da relação com a tabela cliente&lt;/p&gt;&lt;p&gt;&lt;b&gt;- cpf&lt;/b&gt;: Armazenamento de CPF&lt;/p&gt;&lt;p&gt;&lt;b&gt;- nome&lt;/b&gt;: Armazenamento do nome&lt;/p&gt;&lt;p&gt;&lt;b&gt;- nascimento&lt;/b&gt;: Armazenamento de data de nascimento&lt;/p&gt;" style="text;html=1;spacing=14;spacingTop=-21;whiteSpace=wrap;overflow=hidden;rounded=0;glass=0;strokeColor=default;" parent="1" vertex="1">
          <mxGeometry x="192" y="136" width="555" height="208" as="geometry" />
        </mxCell>
        <mxCell id="9TkyVXnDGDksgitPdztk-12" style="edgeStyle=orthogonalEdgeStyle;rounded=0;orthogonalLoop=1;jettySize=auto;html=1;entryX=1.009;entryY=0.914;entryDx=0;entryDy=0;entryPerimeter=0;" parent="1" source="9TkyVXnDGDksgitPdztk-11" target="9TkyVXnDGDksgitPdztk-2" edge="1">
          <mxGeometry relative="1" as="geometry" />
        </mxCell>
        <mxCell id="hnQpvFU7fVBBf2CL3SXz-1" value="pessoajuridica" style="shape=table;startSize=30;container=1;collapsible=1;childLayout=tableLayout;fixedRows=1;rowLines=0;fontStyle=1;align=center;resizeLast=1;absoluteArcSize=0;rounded=0;" parent="1" vertex="1">
          <mxGeometry x="-213" y="432" width="320" height="156" as="geometry">
            <mxRectangle x="87" y="420" width="119" height="30" as="alternateBounds" />
          </mxGeometry>
        </mxCell>
        <mxCell id="hnQpvFU7fVBBf2CL3SXz-2" value="" style="shape=partialRectangle;collapsible=0;dropTarget=0;pointerEvents=0;fillColor=none;points=[[0,0.5],[1,0.5]];portConstraint=eastwest;top=0;left=0;right=0;bottom=1;rounded=0;" parent="hnQpvFU7fVBBf2CL3SXz-1" vertex="1">
          <mxGeometry y="30" width="320" height="36" as="geometry" />
        </mxCell>
        <mxCell id="hnQpvFU7fVBBf2CL3SXz-3" value="PK" style="shape=partialRectangle;overflow=hidden;connectable=0;fillColor=#dae8fc;top=0;left=0;bottom=0;right=0;fontStyle=1;labelBackgroundColor=none;labelBorderColor=none;strokeColor=#6c8ebf;rounded=0;" parent="hnQpvFU7fVBBf2CL3SXz-2" vertex="1">
          <mxGeometry width="30" height="36" as="geometry">
            <mxRectangle width="30" height="36" as="alternateBounds" />
          </mxGeometry>
        </mxCell>
        <mxCell id="hnQpvFU7fVBBf2CL3SXz-4" value="id_pessoajuridica [ int - NOT NULL ]" style="shape=partialRectangle;overflow=hidden;connectable=0;fillColor=#dae8fc;top=0;left=0;bottom=0;right=0;align=left;spacingLeft=6;fontStyle=1;labelBackgroundColor=none;labelBorderColor=none;strokeColor=#6c8ebf;rounded=0;" parent="hnQpvFU7fVBBf2CL3SXz-2" vertex="1">
          <mxGeometry x="30" width="290" height="36" as="geometry">
            <mxRectangle width="290" height="36" as="alternateBounds" />
          </mxGeometry>
        </mxCell>
        <mxCell id="hnQpvFU7fVBBf2CL3SXz-5" value="" style="shape=partialRectangle;collapsible=0;dropTarget=0;pointerEvents=0;fillColor=none;points=[[0,0.5],[1,0.5]];portConstraint=eastwest;top=0;left=0;right=0;bottom=1;rounded=0;" parent="hnQpvFU7fVBBf2CL3SXz-1" vertex="1">
          <mxGeometry y="66" width="320" height="30" as="geometry" />
        </mxCell>
        <mxCell id="hnQpvFU7fVBBf2CL3SXz-6" value="FK" style="shape=partialRectangle;overflow=hidden;connectable=0;fillColor=#f8cecc;top=0;left=0;bottom=0;right=0;fontStyle=1;labelBackgroundColor=none;labelBorderColor=none;strokeColor=#b85450;rounded=0;" parent="hnQpvFU7fVBBf2CL3SXz-5" vertex="1">
          <mxGeometry width="30" height="30" as="geometry">
            <mxRectangle width="30" height="30" as="alternateBounds" />
          </mxGeometry>
        </mxCell>
        <mxCell id="hnQpvFU7fVBBf2CL3SXz-7" value="id_cliente" style="shape=partialRectangle;overflow=hidden;connectable=0;fillColor=#f8cecc;top=0;left=0;bottom=0;right=0;align=left;spacingLeft=6;fontStyle=1;labelBackgroundColor=none;labelBorderColor=none;strokeColor=#b85450;rounded=0;" parent="hnQpvFU7fVBBf2CL3SXz-5" vertex="1">
          <mxGeometry x="30" width="290" height="30" as="geometry">
            <mxRectangle width="290" height="30" as="alternateBounds" />
          </mxGeometry>
        </mxCell>
        <mxCell id="hnQpvFU7fVBBf2CL3SXz-8" value="" style="shape=partialRectangle;collapsible=0;dropTarget=0;pointerEvents=0;fillColor=none;points=[[0,0.5],[1,0.5]];portConstraint=eastwest;top=0;left=0;right=0;bottom=0;rounded=0;" parent="hnQpvFU7fVBBf2CL3SXz-1" vertex="1">
          <mxGeometry y="96" width="320" height="60" as="geometry" />
        </mxCell>
        <mxCell id="hnQpvFU7fVBBf2CL3SXz-9" value="" style="shape=partialRectangle;overflow=hidden;connectable=0;fillColor=none;top=0;left=0;bottom=0;right=0;rounded=0;" parent="hnQpvFU7fVBBf2CL3SXz-8" vertex="1">
          <mxGeometry width="30" height="60" as="geometry">
            <mxRectangle width="30" height="60" as="alternateBounds" />
          </mxGeometry>
        </mxCell>
        <mxCell id="hnQpvFU7fVBBf2CL3SXz-10" value="cpnj [ varchar(14) - NOT NULL ]&#xa;razao_social [ varchar(150) - NOT NULL ]&#xa;nome_fantasia [ varchar(150) - NOT NULL ]" style="shape=partialRectangle;overflow=hidden;connectable=0;fillColor=none;top=0;left=0;bottom=0;right=0;align=left;spacingLeft=6;rounded=0;" parent="hnQpvFU7fVBBf2CL3SXz-8" vertex="1">
          <mxGeometry x="30" width="290" height="60" as="geometry">
            <mxRectangle width="290" height="60" as="alternateBounds" />
          </mxGeometry>
        </mxCell>
        <mxCell id="hnQpvFU7fVBBf2CL3SXz-13" value="&lt;h1&gt;pessoajuridica&lt;/h1&gt;&lt;p&gt;&lt;b&gt;- id_pessoajuridica: &lt;/b&gt;Campo de identificação da tabela&lt;/p&gt;&lt;p&gt;&lt;b&gt;- id_cliente&lt;/b&gt;: Chave estrangeira da tabela &quot;cliente&quot; para gerar a identificação da relação com a tabela cliente&lt;/p&gt;&lt;p&gt;&lt;b&gt;- cnpj&lt;/b&gt;: Armazenamento de CNPJ&lt;/p&gt;&lt;p&gt;&lt;b&gt;- razao_social&lt;/b&gt;: Armazenamento do razão social&lt;/p&gt;&lt;p&gt;&lt;b&gt;- nome_fantasia&lt;/b&gt;: Armazenamento de nome fantasia&lt;/p&gt;" style="text;html=1;spacing=14;spacingTop=-21;whiteSpace=wrap;overflow=hidden;rounded=0;glass=0;strokeColor=default;" parent="1" vertex="1">
          <mxGeometry x="192" y="400" width="555" height="208" as="geometry" />
        </mxCell>
        <mxCell id="hnQpvFU7fVBBf2CL3SXz-15" style="edgeStyle=orthogonalEdgeStyle;rounded=0;orthogonalLoop=1;jettySize=auto;html=1;entryX=1;entryY=0.2;entryDx=0;entryDy=0;entryPerimeter=0;" parent="1" source="hnQpvFU7fVBBf2CL3SXz-13" target="hnQpvFU7fVBBf2CL3SXz-5" edge="1">
          <mxGeometry relative="1" as="geometry" />
        </mxCell>
        <mxCell id="yzyl59zGcleQgeJQ_6s9-1" value="ordem_compra" style="shape=table;startSize=30;container=1;collapsible=1;childLayout=tableLayout;fixedRows=1;rowLines=0;fontStyle=1;align=center;resizeLast=1;absoluteArcSize=0;rounded=0;" parent="1" vertex="1">
          <mxGeometry x="-213" y="713" width="320" height="167" as="geometry">
            <mxRectangle x="407" y="-67" width="122" height="30" as="alternateBounds" />
          </mxGeometry>
        </mxCell>
        <mxCell id="yzyl59zGcleQgeJQ_6s9-2" value="" style="shape=partialRectangle;collapsible=0;dropTarget=0;pointerEvents=0;fillColor=none;points=[[0,0.5],[1,0.5]];portConstraint=eastwest;top=0;left=0;right=0;bottom=1;rounded=0;" parent="yzyl59zGcleQgeJQ_6s9-1" vertex="1">
          <mxGeometry y="30" width="320" height="30" as="geometry" />
        </mxCell>
        <mxCell id="yzyl59zGcleQgeJQ_6s9-3" value="PK" style="shape=partialRectangle;overflow=hidden;connectable=0;fillColor=#dae8fc;top=0;left=0;bottom=0;right=0;fontStyle=1;labelBackgroundColor=none;labelBorderColor=none;strokeColor=#6c8ebf;rounded=0;" parent="yzyl59zGcleQgeJQ_6s9-2" vertex="1">
          <mxGeometry width="30" height="30" as="geometry">
            <mxRectangle width="30" height="30" as="alternateBounds" />
          </mxGeometry>
        </mxCell>
        <mxCell id="yzyl59zGcleQgeJQ_6s9-4" value="id_compra [ int - NOT NULL]" style="shape=partialRectangle;overflow=hidden;connectable=0;fillColor=#dae8fc;top=0;left=0;bottom=0;right=0;align=left;spacingLeft=6;fontStyle=1;labelBackgroundColor=none;labelBorderColor=none;strokeColor=#6c8ebf;rounded=0;" parent="yzyl59zGcleQgeJQ_6s9-2" vertex="1">
          <mxGeometry x="30" width="290" height="30" as="geometry">
            <mxRectangle width="290" height="30" as="alternateBounds" />
          </mxGeometry>
        </mxCell>
        <mxCell id="yzyl59zGcleQgeJQ_6s9-5" value="" style="shape=partialRectangle;collapsible=0;dropTarget=0;pointerEvents=0;fillColor=none;points=[[0,0.5],[1,0.5]];portConstraint=eastwest;top=0;left=0;right=0;bottom=1;rounded=0;" parent="yzyl59zGcleQgeJQ_6s9-1" vertex="1">
          <mxGeometry y="60" width="320" height="30" as="geometry" />
        </mxCell>
        <mxCell id="yzyl59zGcleQgeJQ_6s9-6" value="FK" style="shape=partialRectangle;overflow=hidden;connectable=0;fillColor=#f8cecc;top=0;left=0;bottom=0;right=0;fontStyle=1;labelBackgroundColor=none;labelBorderColor=none;strokeColor=#b85450;rounded=0;" parent="yzyl59zGcleQgeJQ_6s9-5" vertex="1">
          <mxGeometry width="30" height="30" as="geometry">
            <mxRectangle width="30" height="30" as="alternateBounds" />
          </mxGeometry>
        </mxCell>
        <mxCell id="yzyl59zGcleQgeJQ_6s9-7" value="id_cliente" style="shape=partialRectangle;overflow=hidden;connectable=0;fillColor=#f8cecc;top=0;left=0;bottom=0;right=0;align=left;spacingLeft=6;fontStyle=1;labelBackgroundColor=none;labelBorderColor=none;strokeColor=#b85450;rounded=0;" parent="yzyl59zGcleQgeJQ_6s9-5" vertex="1">
          <mxGeometry x="30" width="290" height="30" as="geometry">
            <mxRectangle width="290" height="30" as="alternateBounds" />
          </mxGeometry>
        </mxCell>
        <mxCell id="yzyl59zGcleQgeJQ_6s9-8" value="" style="shape=partialRectangle;collapsible=0;dropTarget=0;pointerEvents=0;fillColor=none;points=[[0,0.5],[1,0.5]];portConstraint=eastwest;top=0;left=0;right=0;bottom=0;rounded=0;" parent="yzyl59zGcleQgeJQ_6s9-1" vertex="1">
          <mxGeometry y="90" width="320" height="77" as="geometry" />
        </mxCell>
        <mxCell id="yzyl59zGcleQgeJQ_6s9-9" value="" style="shape=partialRectangle;overflow=hidden;connectable=0;fillColor=none;top=0;left=0;bottom=0;right=0;rounded=0;" parent="yzyl59zGcleQgeJQ_6s9-8" vertex="1">
          <mxGeometry width="30" height="77" as="geometry">
            <mxRectangle width="30" height="77" as="alternateBounds" />
          </mxGeometry>
        </mxCell>
        <mxCell id="yzyl59zGcleQgeJQ_6s9-10" value="valor_compra [ double precision - NOT NULL ]&#xa;data_compra [ data - NOT NULL ]&#xa;quantidade [ int - NOT NULL ]&#xa;status [ varchar(3) - NOT NULL ]" style="shape=partialRectangle;overflow=hidden;connectable=0;fillColor=none;top=0;left=0;bottom=0;right=0;align=left;spacingLeft=6;rounded=0;" parent="yzyl59zGcleQgeJQ_6s9-8" vertex="1">
          <mxGeometry x="30" width="290" height="77" as="geometry">
            <mxRectangle width="290" height="77" as="alternateBounds" />
          </mxGeometry>
        </mxCell>
        <mxCell id="yzyl59zGcleQgeJQ_6s9-12" style="edgeStyle=orthogonalEdgeStyle;rounded=0;orthogonalLoop=1;jettySize=auto;html=1;entryX=1;entryY=0.5;entryDx=0;entryDy=0;" parent="1" source="yzyl59zGcleQgeJQ_6s9-11" target="yzyl59zGcleQgeJQ_6s9-5" edge="1">
          <mxGeometry relative="1" as="geometry" />
        </mxCell>
        <mxCell id="yzyl59zGcleQgeJQ_6s9-11" value="&lt;h1&gt;ordem_compra&lt;/h1&gt;&lt;p&gt;&lt;b&gt;- id_compra: &lt;/b&gt;Campo de identificação da tabela&lt;/p&gt;&lt;p&gt;&lt;b&gt;- id_cliente&lt;/b&gt;: Chave estrangeira da tabela &quot;cliente&quot; para gerar a identificação da relação com a tabela cliente&lt;/p&gt;&lt;p&gt;&lt;b&gt;- valor_compra&lt;/b&gt;: Armazenamento do valor da compra&lt;/p&gt;&lt;p&gt;&lt;b&gt;- data_compra&lt;/b&gt;: Armazenamento da data da compra&lt;/p&gt;&lt;p&gt;&lt;b&gt;- quantidade&lt;/b&gt;: Armazenamento de quantidade de ativos comprados nessa ordem&lt;/p&gt;&lt;p&gt;&lt;b&gt;- status&lt;/b&gt;: Armazena o status da ordem de compra, sendo FIN (para finalizado), ABR (para ordens em aberto aguardando compra) e CAN (para ordens emitidas que foram canceladas)&lt;/p&gt;" style="text;html=1;spacing=14;spacingTop=-21;whiteSpace=wrap;overflow=hidden;rounded=0;glass=0;strokeColor=default;" parent="1" vertex="1">
          <mxGeometry x="192" y="665" width="555" height="246" as="geometry" />
        </mxCell>
        <mxCell id="OJmXfEznwDd12anQzwJJ-12" style="edgeStyle=orthogonalEdgeStyle;rounded=0;orthogonalLoop=1;jettySize=auto;html=1;entryX=1;entryY=0.5;entryDx=0;entryDy=0;" parent="1" source="yzyl59zGcleQgeJQ_6s9-24" target="OJmXfEznwDd12anQzwJJ-5" edge="1">
          <mxGeometry relative="1" as="geometry" />
        </mxCell>
        <mxCell id="yzyl59zGcleQgeJQ_6s9-24" value="&lt;h1&gt;ordem_venda&lt;/h1&gt;&lt;p&gt;&lt;b&gt;- id_compra: &lt;/b&gt;Campo de identificação da tabela&lt;/p&gt;&lt;p&gt;&lt;b&gt;- id_cliente&lt;/b&gt;: Chave estrangeira da tabela &quot;cliente&quot; para gerar a identificação da relação com a tabela cliente&lt;/p&gt;&lt;p&gt;&lt;b&gt;- valor_venda&lt;/b&gt;: Armazenamento do valor da venda&lt;/p&gt;&lt;p&gt;&lt;b&gt;- data_venda&lt;/b&gt;: Armazenamento da data da venda&lt;/p&gt;&lt;p&gt;&lt;b&gt;- quantidade&lt;/b&gt;: Armazenamento de quantidade de ativos comprados nessa ordem&lt;/p&gt;&lt;p&gt;&lt;b&gt;- status&lt;/b&gt;: Armazena o status da ordem de venda, sendo FIN (para finalizado), ABR (para ordens em aberto aguardando compra) e CAN (para ordens emitidas que foram canceladas)&lt;/p&gt;" style="text;html=1;spacing=14;spacingTop=-21;whiteSpace=wrap;overflow=hidden;rounded=0;glass=0;strokeColor=default;" parent="1" vertex="1">
          <mxGeometry x="192" y="976" width="555" height="246" as="geometry" />
        </mxCell>
        <mxCell id="OJmXfEznwDd12anQzwJJ-1" value="ordem_venda" style="shape=table;startSize=30;container=1;collapsible=1;childLayout=tableLayout;fixedRows=1;rowLines=0;fontStyle=1;align=center;resizeLast=1;absoluteArcSize=0;rounded=0;" parent="1" vertex="1">
          <mxGeometry x="-213" y="1024" width="320" height="173" as="geometry">
            <mxRectangle x="407" y="151" width="113" height="30" as="alternateBounds" />
          </mxGeometry>
        </mxCell>
        <mxCell id="OJmXfEznwDd12anQzwJJ-2" value="" style="shape=partialRectangle;collapsible=0;dropTarget=0;pointerEvents=0;fillColor=none;points=[[0,0.5],[1,0.5]];portConstraint=eastwest;top=0;left=0;right=0;bottom=1;rounded=0;" parent="OJmXfEznwDd12anQzwJJ-1" vertex="1">
          <mxGeometry y="30" width="320" height="30" as="geometry" />
        </mxCell>
        <mxCell id="OJmXfEznwDd12anQzwJJ-3" value="PK" style="shape=partialRectangle;overflow=hidden;connectable=0;fillColor=#dae8fc;top=0;left=0;bottom=0;right=0;fontStyle=1;labelBackgroundColor=none;labelBorderColor=none;strokeColor=#6c8ebf;rounded=0;" parent="OJmXfEznwDd12anQzwJJ-2" vertex="1">
          <mxGeometry width="30" height="30" as="geometry">
            <mxRectangle width="30" height="30" as="alternateBounds" />
          </mxGeometry>
        </mxCell>
        <mxCell id="OJmXfEznwDd12anQzwJJ-4" value="id_pessoajuridica [ int - NOT NULL ]" style="shape=partialRectangle;overflow=hidden;connectable=0;fillColor=#dae8fc;top=0;left=0;bottom=0;right=0;align=left;spacingLeft=6;fontStyle=1;labelBackgroundColor=none;labelBorderColor=none;strokeColor=#6c8ebf;rounded=0;" parent="OJmXfEznwDd12anQzwJJ-2" vertex="1">
          <mxGeometry x="30" width="290" height="30" as="geometry">
            <mxRectangle width="290" height="30" as="alternateBounds" />
          </mxGeometry>
        </mxCell>
        <mxCell id="OJmXfEznwDd12anQzwJJ-5" value="" style="shape=partialRectangle;collapsible=0;dropTarget=0;pointerEvents=0;fillColor=none;points=[[0,0.5],[1,0.5]];portConstraint=eastwest;top=0;left=0;right=0;bottom=1;rounded=0;" parent="OJmXfEznwDd12anQzwJJ-1" vertex="1">
          <mxGeometry y="60" width="320" height="30" as="geometry" />
        </mxCell>
        <mxCell id="OJmXfEznwDd12anQzwJJ-6" value="FK" style="shape=partialRectangle;overflow=hidden;connectable=0;fillColor=#f8cecc;top=0;left=0;bottom=0;right=0;fontStyle=1;labelBackgroundColor=none;labelBorderColor=none;strokeColor=#b85450;rounded=0;" parent="OJmXfEznwDd12anQzwJJ-5" vertex="1">
          <mxGeometry width="30" height="30" as="geometry">
            <mxRectangle width="30" height="30" as="alternateBounds" />
          </mxGeometry>
        </mxCell>
        <mxCell id="OJmXfEznwDd12anQzwJJ-7" value="id_cliente" style="shape=partialRectangle;overflow=hidden;connectable=0;fillColor=#f8cecc;top=0;left=0;bottom=0;right=0;align=left;spacingLeft=6;fontStyle=1;labelBackgroundColor=none;labelBorderColor=none;strokeColor=#b85450;rounded=0;" parent="OJmXfEznwDd12anQzwJJ-5" vertex="1">
          <mxGeometry x="30" width="290" height="30" as="geometry">
            <mxRectangle width="290" height="30" as="alternateBounds" />
          </mxGeometry>
        </mxCell>
        <mxCell id="OJmXfEznwDd12anQzwJJ-8" value="" style="shape=partialRectangle;collapsible=0;dropTarget=0;pointerEvents=0;fillColor=none;points=[[0,0.5],[1,0.5]];portConstraint=eastwest;top=0;left=0;right=0;bottom=0;rounded=0;" parent="OJmXfEznwDd12anQzwJJ-1" vertex="1">
          <mxGeometry y="90" width="320" height="83" as="geometry" />
        </mxCell>
        <mxCell id="OJmXfEznwDd12anQzwJJ-9" value="" style="shape=partialRectangle;overflow=hidden;connectable=0;fillColor=none;top=0;left=0;bottom=0;right=0;rounded=0;" parent="OJmXfEznwDd12anQzwJJ-8" vertex="1">
          <mxGeometry width="30" height="83" as="geometry">
            <mxRectangle width="30" height="83" as="alternateBounds" />
          </mxGeometry>
        </mxCell>
        <mxCell id="OJmXfEznwDd12anQzwJJ-10" value="valor_venda [ double precision - NOT NULL ]&#xa;data_venda [ data - NOT NULL ]&#xa;quantidade [ int - NOT NULL ]&#xa;status [ varchar(3) - NOT NULL ]" style="shape=partialRectangle;overflow=hidden;connectable=0;fillColor=none;top=0;left=0;bottom=0;right=0;align=left;spacingLeft=6;rounded=0;" parent="OJmXfEznwDd12anQzwJJ-8" vertex="1">
          <mxGeometry x="30" width="290" height="83" as="geometry">
            <mxRectangle width="290" height="83" as="alternateBounds" />
          </mxGeometry>
        </mxCell>
        <mxCell id="PBrGJJBQOJ8MjelK1wlI-1" value="carteira" style="shape=table;startSize=30;container=1;collapsible=1;childLayout=tableLayout;fixedRows=1;rowLines=0;fontStyle=1;align=center;resizeLast=1;absoluteArcSize=0;rounded=0;" parent="1" vertex="1">
          <mxGeometry x="-213" y="1322.02" width="320" height="129.30232558139556" as="geometry">
            <mxRectangle x="87" y="420" width="119" height="30" as="alternateBounds" />
          </mxGeometry>
        </mxCell>
        <mxCell id="PBrGJJBQOJ8MjelK1wlI-2" value="" style="shape=partialRectangle;collapsible=0;dropTarget=0;pointerEvents=0;fillColor=none;points=[[0,0.5],[1,0.5]];portConstraint=eastwest;top=0;left=0;right=0;bottom=1;rounded=0;" parent="PBrGJJBQOJ8MjelK1wlI-1" vertex="1">
          <mxGeometry y="30" width="320" height="30" as="geometry" />
        </mxCell>
        <mxCell id="PBrGJJBQOJ8MjelK1wlI-3" value="PK" style="shape=partialRectangle;overflow=hidden;connectable=0;fillColor=#dae8fc;top=0;left=0;bottom=0;right=0;fontStyle=1;labelBackgroundColor=none;labelBorderColor=none;strokeColor=#6c8ebf;rounded=0;" parent="PBrGJJBQOJ8MjelK1wlI-2" vertex="1">
          <mxGeometry width="30" height="30" as="geometry">
            <mxRectangle width="30" height="30" as="alternateBounds" />
          </mxGeometry>
        </mxCell>
        <mxCell id="PBrGJJBQOJ8MjelK1wlI-4" value="id_carteira [ int - NOT NULL ]" style="shape=partialRectangle;overflow=hidden;connectable=0;fillColor=#dae8fc;top=0;left=0;bottom=0;right=0;align=left;spacingLeft=6;fontStyle=1;labelBackgroundColor=none;labelBorderColor=none;strokeColor=#6c8ebf;rounded=0;" parent="PBrGJJBQOJ8MjelK1wlI-2" vertex="1">
          <mxGeometry x="30" width="290" height="30" as="geometry">
            <mxRectangle width="290" height="30" as="alternateBounds" />
          </mxGeometry>
        </mxCell>
        <mxCell id="PBrGJJBQOJ8MjelK1wlI-5" value="" style="shape=partialRectangle;collapsible=0;dropTarget=0;pointerEvents=0;fillColor=none;points=[[0,0.5],[1,0.5]];portConstraint=eastwest;top=0;left=0;right=0;bottom=1;rounded=0;" parent="PBrGJJBQOJ8MjelK1wlI-1" vertex="1">
          <mxGeometry y="60" width="320" height="42" as="geometry" />
        </mxCell>
        <mxCell id="PBrGJJBQOJ8MjelK1wlI-6" value="FK" style="shape=partialRectangle;overflow=hidden;connectable=0;fillColor=#f8cecc;top=0;left=0;bottom=0;right=0;fontStyle=1;labelBackgroundColor=none;labelBorderColor=none;strokeColor=#b85450;rounded=0;" parent="PBrGJJBQOJ8MjelK1wlI-5" vertex="1">
          <mxGeometry width="30" height="42" as="geometry">
            <mxRectangle width="30" height="42" as="alternateBounds" />
          </mxGeometry>
        </mxCell>
        <mxCell id="PBrGJJBQOJ8MjelK1wlI-7" value="id_cliente&#xa;id_ativo" style="shape=partialRectangle;overflow=hidden;connectable=0;fillColor=#f8cecc;top=0;left=0;bottom=0;right=0;align=left;spacingLeft=6;fontStyle=1;labelBackgroundColor=none;labelBorderColor=none;strokeColor=#b85450;rounded=0;" parent="PBrGJJBQOJ8MjelK1wlI-5" vertex="1">
          <mxGeometry x="30" width="290" height="42" as="geometry">
            <mxRectangle width="290" height="42" as="alternateBounds" />
          </mxGeometry>
        </mxCell>
        <mxCell id="PBrGJJBQOJ8MjelK1wlI-8" value="" style="shape=partialRectangle;collapsible=0;dropTarget=0;pointerEvents=0;fillColor=none;points=[[0,0.5],[1,0.5]];portConstraint=eastwest;top=0;left=0;right=0;bottom=0;rounded=0;" parent="PBrGJJBQOJ8MjelK1wlI-1" vertex="1">
          <mxGeometry y="102" width="320" height="27" as="geometry" />
        </mxCell>
        <mxCell id="PBrGJJBQOJ8MjelK1wlI-9" value="" style="shape=partialRectangle;overflow=hidden;connectable=0;fillColor=none;top=0;left=0;bottom=0;right=0;rounded=0;" parent="PBrGJJBQOJ8MjelK1wlI-8" vertex="1">
          <mxGeometry width="30" height="27" as="geometry">
            <mxRectangle width="30" height="27" as="alternateBounds" />
          </mxGeometry>
        </mxCell>
        <mxCell id="PBrGJJBQOJ8MjelK1wlI-10" value="quantidade [ int - NOT NULL ]" style="shape=partialRectangle;overflow=hidden;connectable=0;fillColor=none;top=0;left=0;bottom=0;right=0;align=left;spacingLeft=6;rounded=0;" parent="PBrGJJBQOJ8MjelK1wlI-8" vertex="1">
          <mxGeometry x="30" width="290" height="27" as="geometry">
            <mxRectangle width="290" height="27" as="alternateBounds" />
          </mxGeometry>
        </mxCell>
        <mxCell id="PBrGJJBQOJ8MjelK1wlI-24" style="edgeStyle=orthogonalEdgeStyle;rounded=0;orthogonalLoop=1;jettySize=auto;html=1;entryX=1;entryY=0.5;entryDx=0;entryDy=0;" parent="1" source="PBrGJJBQOJ8MjelK1wlI-21" target="PBrGJJBQOJ8MjelK1wlI-1" edge="1">
          <mxGeometry relative="1" as="geometry" />
        </mxCell>
        <mxCell id="PBrGJJBQOJ8MjelK1wlI-21" value="&lt;h1&gt;carteira&lt;/h1&gt;&lt;p&gt;&lt;b&gt;- id_carteira: &lt;/b&gt;Campo de identificação da tabela&lt;/p&gt;&lt;p&gt;&lt;b&gt;- id_cliente&lt;/b&gt;: Chave estrangeira da tabela &quot;cliente&quot; para gerar a identificação da relação com a tabela cliente&lt;/p&gt;&lt;b style=&quot;border-color: var(--border-color);&quot;&gt;- id_ativo&lt;/b&gt;: Chave estrangeira da tabela &quot;ativo&quot; para gerar a identificação da relação com a tabela cliente&lt;p&gt;&lt;b&gt;- quantidade&lt;/b&gt;: Quantidade de determinado ativo em carteira relacionado ao cliente&lt;/p&gt;" style="text;html=1;spacing=14;spacingTop=-21;whiteSpace=wrap;overflow=hidden;rounded=0;glass=0;strokeColor=default;" parent="1" vertex="1">
          <mxGeometry x="192" y="1287" width="555" height="199.35" as="geometry" />
        </mxCell>
        <mxCell id="SPPD_mwknWjmLKPkjjgp-1" value="ativo" style="shape=table;startSize=30;container=1;collapsible=1;childLayout=tableLayout;fixedRows=1;rowLines=0;fontStyle=1;align=center;resizeLast=1;absoluteArcSize=0;rounded=0;" parent="1" vertex="1">
          <mxGeometry x="-213" y="1599" width="320" height="208.35158666513945" as="geometry">
            <mxRectangle x="87" y="420" width="119" height="30" as="alternateBounds" />
          </mxGeometry>
        </mxCell>
        <mxCell id="SPPD_mwknWjmLKPkjjgp-2" value="" style="shape=partialRectangle;collapsible=0;dropTarget=0;pointerEvents=0;fillColor=none;points=[[0,0.5],[1,0.5]];portConstraint=eastwest;top=0;left=0;right=0;bottom=1;rounded=0;" parent="SPPD_mwknWjmLKPkjjgp-1" vertex="1">
          <mxGeometry y="30" width="320" height="30" as="geometry" />
        </mxCell>
        <mxCell id="SPPD_mwknWjmLKPkjjgp-3" value="PK" style="shape=partialRectangle;overflow=hidden;connectable=0;fillColor=#dae8fc;top=0;left=0;bottom=0;right=0;fontStyle=1;labelBackgroundColor=none;labelBorderColor=none;strokeColor=#6c8ebf;rounded=0;" parent="SPPD_mwknWjmLKPkjjgp-2" vertex="1">
          <mxGeometry width="30" height="30" as="geometry">
            <mxRectangle width="30" height="30" as="alternateBounds" />
          </mxGeometry>
        </mxCell>
        <mxCell id="SPPD_mwknWjmLKPkjjgp-4" value="id_ativo [ int - NOT NULL ]" style="shape=partialRectangle;overflow=hidden;connectable=0;fillColor=#dae8fc;top=0;left=0;bottom=0;right=0;align=left;spacingLeft=6;fontStyle=1;labelBackgroundColor=none;labelBorderColor=none;strokeColor=#6c8ebf;rounded=0;" parent="SPPD_mwknWjmLKPkjjgp-2" vertex="1">
          <mxGeometry x="30" width="290" height="30" as="geometry">
            <mxRectangle width="290" height="30" as="alternateBounds" />
          </mxGeometry>
        </mxCell>
        <mxCell id="SPPD_mwknWjmLKPkjjgp-5" value="" style="shape=partialRectangle;collapsible=0;dropTarget=0;pointerEvents=0;fillColor=none;points=[[0,0.5],[1,0.5]];portConstraint=eastwest;top=0;left=0;right=0;bottom=1;rounded=0;" parent="SPPD_mwknWjmLKPkjjgp-1" vertex="1">
          <mxGeometry y="60" width="320" height="30" as="geometry" />
        </mxCell>
        <mxCell id="SPPD_mwknWjmLKPkjjgp-6" value="FK" style="shape=partialRectangle;overflow=hidden;connectable=0;fillColor=#f8cecc;top=0;left=0;bottom=0;right=0;fontStyle=1;labelBackgroundColor=none;labelBorderColor=none;strokeColor=#b85450;rounded=0;" parent="SPPD_mwknWjmLKPkjjgp-5" vertex="1">
          <mxGeometry width="30" height="30" as="geometry">
            <mxRectangle width="30" height="30" as="alternateBounds" />
          </mxGeometry>
        </mxCell>
        <mxCell id="SPPD_mwknWjmLKPkjjgp-7" value="id_empresa" style="shape=partialRectangle;overflow=hidden;connectable=0;fillColor=#f8cecc;top=0;left=0;bottom=0;right=0;align=left;spacingLeft=6;fontStyle=1;labelBackgroundColor=none;labelBorderColor=none;strokeColor=#b85450;rounded=0;" parent="SPPD_mwknWjmLKPkjjgp-5" vertex="1">
          <mxGeometry x="30" width="290" height="30" as="geometry">
            <mxRectangle width="290" height="30" as="alternateBounds" />
          </mxGeometry>
        </mxCell>
        <mxCell id="SPPD_mwknWjmLKPkjjgp-8" value="" style="shape=partialRectangle;collapsible=0;dropTarget=0;pointerEvents=0;fillColor=none;points=[[0,0.5],[1,0.5]];portConstraint=eastwest;top=0;left=0;right=0;bottom=0;rounded=0;" parent="SPPD_mwknWjmLKPkjjgp-1" vertex="1">
          <mxGeometry y="90" width="320" height="118" as="geometry" />
        </mxCell>
        <mxCell id="SPPD_mwknWjmLKPkjjgp-9" value="" style="shape=partialRectangle;overflow=hidden;connectable=0;fillColor=none;top=0;left=0;bottom=0;right=0;rounded=0;" parent="SPPD_mwknWjmLKPkjjgp-8" vertex="1">
          <mxGeometry width="30" height="118" as="geometry">
            <mxRectangle width="30" height="118" as="alternateBounds" />
          </mxGeometry>
        </mxCell>
        <mxCell id="SPPD_mwknWjmLKPkjjgp-10" value="sigla [ varchar (10) - NOT NULL ]&#xa;nome [ varchar(50) - NOT NULL ]&#xa;atualizacao [ data - NOT NULL ]&#xa;quantidades_papeis [ int - NOT NULL ]&#xa;valor_max [ double precision - NOT NULL ]&#xa;valor_min [ double precision - NOT NULL ]&#xa;valor [ double precision - NOT NULL ]" style="shape=partialRectangle;overflow=hidden;connectable=0;fillColor=none;top=0;left=0;bottom=0;right=0;align=left;spacingLeft=6;rounded=0;" parent="SPPD_mwknWjmLKPkjjgp-8" vertex="1">
          <mxGeometry x="30" width="290" height="118" as="geometry">
            <mxRectangle width="290" height="118" as="alternateBounds" />
          </mxGeometry>
        </mxCell>
        <mxCell id="SPPD_mwknWjmLKPkjjgp-11" value="&lt;h1&gt;ativo&lt;/h1&gt;&lt;p&gt;&lt;b&gt;- id_ativo: &lt;/b&gt;Campo de identificação da tabela&lt;/p&gt;&lt;p&gt;&lt;b&gt;- id_empresa&lt;/b&gt;: Chave estrangeira da tabela &quot;empresa&quot; para gerar a identificação da relação com a tabela empresa&lt;/p&gt;&lt;b style=&quot;border-color: var(--border-color);&quot;&gt;- sigla&lt;/b&gt;: Campo de armazenamento de sigla referente ao ativo&lt;p&gt;&lt;b&gt;- nome&lt;/b&gt;: Campo de armazenamento da nomenclatura do ativo&lt;/p&gt;&lt;p&gt;&lt;b&gt;- atualizacao&lt;/b&gt;: Campo de armazenamento da ultima data de atualização do ativo&lt;/p&gt;&lt;p&gt;&lt;b&gt;- quantidade_papeis&lt;/b&gt;: Campo que armazena as quantidades de papeis do ativo&lt;/p&gt;&lt;p&gt;&lt;b&gt;- valor_max: &lt;/b&gt;Armazenamento do valor máximo do ativo na ultima atualização&lt;/p&gt;&lt;p&gt;&lt;b&gt;- valor_min&lt;/b&gt;: Armazenamento do valor mínimo do ativo na ultima atualização&lt;/p&gt;&lt;p&gt;&lt;b&gt;- valor: &lt;/b&gt;Armazenamento do valor real do ativo na ultima atualização&lt;/p&gt;" style="text;html=1;spacing=14;spacingTop=-21;whiteSpace=wrap;overflow=hidden;rounded=0;glass=0;strokeColor=default;" parent="1" vertex="1">
          <mxGeometry x="192" y="1551" width="555" height="312" as="geometry" />
        </mxCell>
        <mxCell id="SPPD_mwknWjmLKPkjjgp-12" style="edgeStyle=orthogonalEdgeStyle;rounded=0;orthogonalLoop=1;jettySize=auto;html=1;entryX=1.004;entryY=0.158;entryDx=0;entryDy=0;entryPerimeter=0;" parent="1" source="SPPD_mwknWjmLKPkjjgp-11" target="SPPD_mwknWjmLKPkjjgp-8" edge="1">
          <mxGeometry relative="1" as="geometry" />
        </mxCell>
        <mxCell id="cjkTOtRjv7xqY7ZYMBc3-1" value="empresa" style="shape=table;startSize=30;container=1;collapsible=1;childLayout=tableLayout;fixedRows=1;rowLines=0;fontStyle=1;align=center;resizeLast=1;absoluteArcSize=0;rounded=0;" parent="1" vertex="1">
          <mxGeometry x="-213" y="1952" width="320" height="123" as="geometry">
            <mxRectangle x="87" y="420" width="119" height="30" as="alternateBounds" />
          </mxGeometry>
        </mxCell>
        <mxCell id="cjkTOtRjv7xqY7ZYMBc3-2" value="" style="shape=partialRectangle;collapsible=0;dropTarget=0;pointerEvents=0;fillColor=none;points=[[0,0.5],[1,0.5]];portConstraint=eastwest;top=0;left=0;right=0;bottom=1;rounded=0;" parent="cjkTOtRjv7xqY7ZYMBc3-1" vertex="1">
          <mxGeometry y="30" width="320" height="30" as="geometry" />
        </mxCell>
        <mxCell id="cjkTOtRjv7xqY7ZYMBc3-3" value="PK" style="shape=partialRectangle;overflow=hidden;connectable=0;fillColor=#dae8fc;top=0;left=0;bottom=0;right=0;fontStyle=1;labelBackgroundColor=none;labelBorderColor=none;strokeColor=#6c8ebf;rounded=0;" parent="cjkTOtRjv7xqY7ZYMBc3-2" vertex="1">
          <mxGeometry width="30" height="30" as="geometry">
            <mxRectangle width="30" height="30" as="alternateBounds" />
          </mxGeometry>
        </mxCell>
        <mxCell id="cjkTOtRjv7xqY7ZYMBc3-4" value="id_empresa [ int - NOT NULL ]" style="shape=partialRectangle;overflow=hidden;connectable=0;fillColor=#dae8fc;top=0;left=0;bottom=0;right=0;align=left;spacingLeft=6;fontStyle=1;labelBackgroundColor=none;labelBorderColor=none;strokeColor=#6c8ebf;rounded=0;" parent="cjkTOtRjv7xqY7ZYMBc3-2" vertex="1">
          <mxGeometry x="30" width="290" height="30" as="geometry">
            <mxRectangle width="290" height="30" as="alternateBounds" />
          </mxGeometry>
        </mxCell>
        <mxCell id="cjkTOtRjv7xqY7ZYMBc3-5" value="" style="shape=partialRectangle;collapsible=0;dropTarget=0;pointerEvents=0;fillColor=none;points=[[0,0.5],[1,0.5]];portConstraint=eastwest;top=0;left=0;right=0;bottom=0;rounded=0;" parent="cjkTOtRjv7xqY7ZYMBc3-1" vertex="1">
          <mxGeometry y="60" width="320" height="63" as="geometry" />
        </mxCell>
        <mxCell id="cjkTOtRjv7xqY7ZYMBc3-6" value="" style="shape=partialRectangle;overflow=hidden;connectable=0;fillColor=none;top=0;left=0;bottom=0;right=0;rounded=0;" parent="cjkTOtRjv7xqY7ZYMBc3-5" vertex="1">
          <mxGeometry width="30" height="63" as="geometry">
            <mxRectangle width="30" height="63" as="alternateBounds" />
          </mxGeometry>
        </mxCell>
        <mxCell id="cjkTOtRjv7xqY7ZYMBc3-7" value="razao_social [ varchar(150) - NOT NULL ]&#xa;nome_fantasia [ varchar(150) - NOT NULL ]&#xa;cnpj [ varchar(14) - NOT NULL ]" style="shape=partialRectangle;overflow=hidden;connectable=0;fillColor=none;top=0;left=0;bottom=0;right=0;align=left;spacingLeft=6;rounded=0;" parent="cjkTOtRjv7xqY7ZYMBc3-5" vertex="1">
          <mxGeometry x="30" width="290" height="63" as="geometry">
            <mxRectangle width="290" height="63" as="alternateBounds" />
          </mxGeometry>
        </mxCell>
        <mxCell id="cjkTOtRjv7xqY7ZYMBc3-8" value="&lt;h1&gt;empresa&lt;/h1&gt;&lt;p&gt;&lt;b&gt;- id_empresa: &lt;/b&gt;Campo de identificação da tabela&lt;/p&gt;&lt;p&gt;&lt;b&gt;- razao_social: &lt;/b&gt;Armazenamento da razão social da empresa&lt;/p&gt;&lt;p&gt;&lt;b&gt;- nome_fantasia&lt;/b&gt;: Armazenamento do nome_fantasia da empresa&lt;/p&gt;&lt;p&gt;&lt;b&gt;- cnpj: &lt;/b&gt;Armazenamento do cnpj da empresa&lt;/p&gt;" style="text;html=1;spacing=14;spacingTop=-21;whiteSpace=wrap;overflow=hidden;rounded=0;glass=0;strokeColor=default;" parent="1" vertex="1">
          <mxGeometry x="192" y="1928" width="555" height="176" as="geometry" />
        </mxCell>
        <mxCell id="cjkTOtRjv7xqY7ZYMBc3-9" style="edgeStyle=orthogonalEdgeStyle;rounded=0;orthogonalLoop=1;jettySize=auto;html=1;entryX=1.004;entryY=0.061;entryDx=0;entryDy=0;entryPerimeter=0;" parent="1" source="cjkTOtRjv7xqY7ZYMBc3-8" target="cjkTOtRjv7xqY7ZYMBc3-5" edge="1">
          <mxGeometry relative="1" as="geometry" />
        </mxCell>
        <mxCell id="E5NZ5-5Y74nWKeLayd7j-1" value="historico_preco" style="shape=table;startSize=30;container=1;collapsible=1;childLayout=tableLayout;fixedRows=1;rowLines=0;fontStyle=1;align=center;resizeLast=1;absoluteArcSize=0;rounded=0;" parent="1" vertex="1">
          <mxGeometry x="-213" y="2198" width="320" height="138" as="geometry">
            <mxRectangle x="-514" y="-457" width="119" height="30" as="alternateBounds" />
          </mxGeometry>
        </mxCell>
        <mxCell id="E5NZ5-5Y74nWKeLayd7j-2" value="" style="shape=partialRectangle;collapsible=0;dropTarget=0;pointerEvents=0;fillColor=none;points=[[0,0.5],[1,0.5]];portConstraint=eastwest;top=0;left=0;right=0;bottom=1;rounded=0;" parent="E5NZ5-5Y74nWKeLayd7j-1" vertex="1">
          <mxGeometry y="30" width="320" height="30" as="geometry" />
        </mxCell>
        <mxCell id="E5NZ5-5Y74nWKeLayd7j-3" value="PK" style="shape=partialRectangle;overflow=hidden;connectable=0;fillColor=#dae8fc;top=0;left=0;bottom=0;right=0;fontStyle=1;labelBackgroundColor=none;labelBorderColor=none;strokeColor=#6c8ebf;rounded=0;" parent="E5NZ5-5Y74nWKeLayd7j-2" vertex="1">
          <mxGeometry width="30" height="30" as="geometry">
            <mxRectangle width="30" height="30" as="alternateBounds" />
          </mxGeometry>
        </mxCell>
        <mxCell id="E5NZ5-5Y74nWKeLayd7j-4" value="id [ int - NOT NULL ]" style="shape=partialRectangle;overflow=hidden;connectable=0;fillColor=#dae8fc;top=0;left=0;bottom=0;right=0;align=left;spacingLeft=6;fontStyle=1;labelBackgroundColor=none;labelBorderColor=none;strokeColor=#6c8ebf;rounded=0;" parent="E5NZ5-5Y74nWKeLayd7j-2" vertex="1">
          <mxGeometry x="30" width="290" height="30" as="geometry">
            <mxRectangle width="290" height="30" as="alternateBounds" />
          </mxGeometry>
        </mxCell>
        <mxCell id="E5NZ5-5Y74nWKeLayd7j-5" value="" style="shape=partialRectangle;collapsible=0;dropTarget=0;pointerEvents=0;fillColor=none;points=[[0,0.5],[1,0.5]];portConstraint=eastwest;top=0;left=0;right=0;bottom=1;rounded=0;" parent="E5NZ5-5Y74nWKeLayd7j-1" vertex="1">
          <mxGeometry y="60" width="320" height="31" as="geometry" />
        </mxCell>
        <mxCell id="E5NZ5-5Y74nWKeLayd7j-6" value="FK" style="shape=partialRectangle;overflow=hidden;connectable=0;fillColor=#f8cecc;top=0;left=0;bottom=0;right=0;fontStyle=1;labelBackgroundColor=none;labelBorderColor=none;strokeColor=#b85450;rounded=0;" parent="E5NZ5-5Y74nWKeLayd7j-5" vertex="1">
          <mxGeometry width="30" height="31" as="geometry">
            <mxRectangle width="30" height="31" as="alternateBounds" />
          </mxGeometry>
        </mxCell>
        <mxCell id="E5NZ5-5Y74nWKeLayd7j-7" value="id_ativo" style="shape=partialRectangle;overflow=hidden;connectable=0;fillColor=#f8cecc;top=0;left=0;bottom=0;right=0;align=left;spacingLeft=6;fontStyle=1;labelBackgroundColor=none;labelBorderColor=none;strokeColor=#b85450;rounded=0;" parent="E5NZ5-5Y74nWKeLayd7j-5" vertex="1">
          <mxGeometry x="30" width="290" height="31" as="geometry">
            <mxRectangle width="290" height="31" as="alternateBounds" />
          </mxGeometry>
        </mxCell>
        <mxCell id="E5NZ5-5Y74nWKeLayd7j-8" value="" style="shape=partialRectangle;collapsible=0;dropTarget=0;pointerEvents=0;fillColor=none;points=[[0,0.5],[1,0.5]];portConstraint=eastwest;top=0;left=0;right=0;bottom=0;rounded=0;" parent="E5NZ5-5Y74nWKeLayd7j-1" vertex="1">
          <mxGeometry y="91" width="320" height="47" as="geometry" />
        </mxCell>
        <mxCell id="E5NZ5-5Y74nWKeLayd7j-9" value="" style="shape=partialRectangle;overflow=hidden;connectable=0;fillColor=none;top=0;left=0;bottom=0;right=0;rounded=0;" parent="E5NZ5-5Y74nWKeLayd7j-8" vertex="1">
          <mxGeometry width="30" height="47" as="geometry">
            <mxRectangle width="30" height="47" as="alternateBounds" />
          </mxGeometry>
        </mxCell>
        <mxCell id="E5NZ5-5Y74nWKeLayd7j-10" value="data_valor [ date - NOT NULL ]&#xa;valor_do_ativo [ double precision - NOT NULL ]" style="shape=partialRectangle;overflow=hidden;connectable=0;fillColor=none;top=0;left=0;bottom=0;right=0;align=left;spacingLeft=6;rounded=0;" parent="E5NZ5-5Y74nWKeLayd7j-8" vertex="1">
          <mxGeometry x="30" width="290" height="47" as="geometry">
            <mxRectangle width="290" height="47" as="alternateBounds" />
          </mxGeometry>
        </mxCell>
        <mxCell id="E5NZ5-5Y74nWKeLayd7j-14" style="edgeStyle=orthogonalEdgeStyle;rounded=0;orthogonalLoop=1;jettySize=auto;html=1;entryX=1;entryY=0.5;entryDx=0;entryDy=0;" parent="1" source="E5NZ5-5Y74nWKeLayd7j-11" target="E5NZ5-5Y74nWKeLayd7j-5" edge="1">
          <mxGeometry relative="1" as="geometry" />
        </mxCell>
        <mxCell id="E5NZ5-5Y74nWKeLayd7j-11" value="&lt;h1&gt;historico_preco&lt;/h1&gt;&lt;p&gt;&lt;b&gt;- id: &lt;/b&gt;Campo de identificação da tabela&lt;/p&gt;&lt;p&gt;&lt;b style=&quot;border-color: var(--border-color);&quot;&gt;- id_ativo&lt;/b&gt;: Chave estrangeira da tabela &quot;ativo&quot; para gerar a identificação da relação com a tabela ativo&lt;br&gt;&lt;/p&gt;&lt;p&gt;&lt;b&gt;- data_valor: &lt;/b&gt;Armazenamento da data_valor do ativo que recebe após atualização da tabela ativo pelo trigger &lt;b&gt;:afterUpdate&lt;/b&gt;&lt;/p&gt;&lt;p&gt;&lt;b style=&quot;border-color: var(--border-color);&quot;&gt;- valor_do_ativo:&amp;nbsp;&lt;/b&gt;Armazenamento da valor_do_ativo do ativo que recebe após atualização da tabela ativo pelo trigger&amp;nbsp;&lt;b style=&quot;border-color: var(--border-color);&quot;&gt;:afterUpdate&lt;/b&gt;&lt;br&gt;&lt;/p&gt;" style="text;html=1;spacing=14;spacingTop=-21;whiteSpace=wrap;overflow=hidden;rounded=0;glass=0;strokeColor=default;" parent="1" vertex="1">
          <mxGeometry x="192" y="2169" width="555" height="211" as="geometry" />
        </mxCell>
        <mxCell id="GrTRHvTQqcEwdUR73d3E-1" value=":afterUpdate" style="rounded=0;whiteSpace=wrap;html=1;" parent="1" vertex="1">
          <mxGeometry x="-213" y="2511.5" width="120" height="26" as="geometry" />
        </mxCell>
        <mxCell id="GrTRHvTQqcEwdUR73d3E-3" style="edgeStyle=orthogonalEdgeStyle;rounded=0;orthogonalLoop=1;jettySize=auto;html=1;entryX=1;entryY=0.5;entryDx=0;entryDy=0;" parent="1" source="GrTRHvTQqcEwdUR73d3E-2" target="GrTRHvTQqcEwdUR73d3E-1" edge="1">
          <mxGeometry relative="1" as="geometry" />
        </mxCell>
        <mxCell id="GrTRHvTQqcEwdUR73d3E-2" value="&lt;h1&gt;&lt;b style=&quot;background-color: initial;&quot;&gt;:afterUpdate&lt;/b&gt;&lt;/h1&gt;&lt;h1&gt;&lt;span style=&quot;font-size: 12px;&quot;&gt;Trigger responsável por gerar logs de alteração da tabela ativo e salvar essas informações na tabela historico_preco, dessa forma teremos um método de armazenagem de todas as alterações de preços realizados nos ativos&lt;/span&gt;&lt;/h1&gt;" style="text;html=1;spacing=14;spacingTop=-21;whiteSpace=wrap;overflow=hidden;rounded=0;glass=0;strokeColor=default;" parent="1" vertex="1">
          <mxGeometry x="192" y="2445" width="555" height="159" as="geometry" />
        </mxCell>
        <mxCell id="toJptkwnOhMU_j9DPeRJ-2" value="" style="endArrow=none;dashed=1;html=1;rounded=0;entryX=0.431;entryY=1.085;entryDx=0;entryDy=0;entryPerimeter=0;exitX=0.5;exitY=0;exitDx=0;exitDy=0;" parent="1" source="GrTRHvTQqcEwdUR73d3E-1" target="E5NZ5-5Y74nWKeLayd7j-8" edge="1">
          <mxGeometry width="50" height="50" relative="1" as="geometry">
            <mxPoint x="-153" y="2447" as="sourcePoint" />
            <mxPoint x="-103" y="2397" as="targetPoint" />
          </mxGeometry>
        </mxCell>
      </root>
    </mxGraphModel>
  </diagram>
</mxfile>
